{"glyphs":{"0":{"ha":739,"x_min":47,"x_max":692,"o":"m 270 706 q 256 669 270 706 q 241 462 241 632 q 270 218 241 292 q 369 145 300 145 q 468 219 437 145 q 498 462 498 293 q 467 706 498 631 q 368 780 437 780 q 270 706 300 780 m 47 467 q 47 586 47 467 q 126 822 47 706 q 367 938 205 938 q 611 817 529 938 q 692 458 692 696 q 613 104 692 220 q 371 -13 534 -13 q 128 107 209 -13 q 47 467 47 228 z "},"1":{"ha":739,"x_min":77,"x_max":534,"o":"m 534 924 l 534 0 l 339 0 l 339 534 l 344 718 q 277 654 298 672 l 171 569 l 77 687 l 374 924 l 534 924 z "},"2":{"ha":739,"x_min":49,"x_max":698,"o":"m 698 164 l 698 0 l 52 0 l 52 136 l 284 370 q 418 517 390 479 q 477 664 477 593 q 448 746 477 718 q 365 774 418 774 q 155 679 270 774 l 49 805 q 162 887 117 862 q 381 937 253 937 q 591 868 509 937 q 672 687 672 798 q 650 567 672 624 q 579 451 628 511 q 414 285 530 392 l 295 173 l 295 164 l 698 164 z "},"3":{"ha":739,"x_min":49,"x_max":689,"o":"m 661 717 q 609 570 661 631 q 462 487 557 509 l 462 483 q 631 415 574 469 q 689 269 689 361 q 592 62 689 136 q 316 -13 496 -13 q 49 37 167 -13 l 49 204 q 295 142 171 142 q 438 175 393 142 q 484 276 484 208 q 431 373 484 345 q 262 400 379 400 l 192 400 l 192 550 l 263 550 q 421 579 371 550 q 470 674 470 607 q 338 779 470 779 q 141 711 246 779 l 51 846 q 352 937 176 937 q 578 879 495 937 q 661 717 661 822 z "},"4":{"ha":739,"x_min":22,"x_max":718,"o":"m 416 343 l 416 500 q 419 617 416 547 q 425 700 422 686 l 420 700 q 363 599 396 649 l 194 343 l 416 343 m 718 343 l 718 192 l 607 192 l 607 0 l 416 0 l 416 192 l 22 192 l 22 327 l 427 924 l 607 924 l 607 343 l 718 343 z "},"5":{"ha":739,"x_min":63,"x_max":680,"o":"m 388 591 q 601 515 522 591 q 680 309 680 440 q 585 71 680 154 q 312 -13 489 -13 q 63 37 159 -13 l 63 206 q 179 163 112 180 q 305 146 246 146 q 484 293 484 146 q 299 433 484 433 q 159 411 230 433 l 81 453 l 117 924 l 617 924 l 617 758 l 287 758 l 270 577 l 293 581 q 388 591 330 591 z "},"6":{"ha":739,"x_min":46,"x_max":698,"o":"m 239 322 q 279 195 239 247 q 380 143 319 143 q 475 185 442 143 q 508 301 508 228 q 476 413 508 374 q 384 451 444 451 q 281 412 323 451 q 239 322 239 374 m 433 600 q 628 523 558 600 q 698 303 698 446 q 614 74 698 161 q 379 -13 531 -13 q 137 94 228 -13 q 46 393 46 202 q 161 800 46 666 q 508 935 277 935 q 633 925 589 935 l 633 769 q 521 782 577 782 q 262 661 325 782 q 225 493 230 602 l 233 493 q 433 600 295 600 z "},"7":{"ha":739,"x_min":34,"x_max":698,"o":"m 34 758 l 34 923 l 698 923 l 698 800 l 348 0 l 143 0 l 490 758 l 34 758 z "},"8":{"ha":739,"x_min":46,"x_max":694,"o":"m 226 246 q 264 161 226 192 q 370 131 302 131 q 475 161 438 131 q 513 239 513 192 q 477 323 513 286 q 361 402 442 360 q 226 246 226 340 m 370 569 q 456 628 431 598 q 482 700 482 658 q 450 767 482 741 q 369 793 419 793 q 288 767 319 793 q 258 701 258 742 q 282 631 258 661 q 370 569 306 601 m 156 875 q 196 905 156 875 q 370 936 237 936 q 584 876 503 936 q 666 713 666 815 q 626 586 666 641 q 500 488 586 532 q 648 374 602 434 q 694 239 694 313 q 605 56 694 126 q 367 -13 515 -13 q 132 52 219 -13 q 46 235 46 117 q 88 376 46 315 q 223 483 131 437 q 74 714 74 576 q 156 875 74 813 z "},"9":{"ha":739,"x_min":41,"x_max":696,"o":"m 230 -13 q 106 -4 147 -13 l 106 153 q 226 140 159 140 q 345 156 293 141 q 434 205 397 171 q 490 293 471 238 q 514 428 509 348 l 506 428 q 422 345 470 370 q 301 321 374 321 q 111 398 180 321 q 41 619 41 476 q 126 848 41 762 q 356 935 211 935 q 603 827 510 936 q 694 529 696 718 q 579 122 694 256 q 230 -13 464 -13 m 460 726 q 440 752 460 726 q 360 778 421 778 q 264 736 298 778 q 230 621 230 694 q 262 509 230 548 q 355 470 294 470 q 458 509 416 470 q 500 599 500 548 q 460 726 500 675 z "},"\r":{"ha":374,"x_min":0,"x_max":0,"o":""}," ":{"ha":374,"x_min":0,"x_max":0,"o":""},"!":{"ha":488,"x_min":133,"x_max":355,"o":"m 355 91 q 355 66 355 91 q 325 12 355 41 q 244 -17 296 -17 q 163 11 192 -17 q 133 91 133 39 q 162 171 133 143 q 244 198 190 198 q 326 170 297 198 q 355 91 355 142 m 355 924 l 322 306 l 169 306 l 136 924 l 355 924 z "},"\"":{"ha":724,"x_min":140,"x_max":584,"o":"m 140 924 l 317 924 l 291 591 l 166 591 l 140 924 m 407 924 l 584 924 l 558 591 l 433 591 l 407 924 z "},"#":{"ha":836,"x_min":28,"x_max":807,"o":"m 807 534 l 631 534 l 602 387 l 765 387 l 765 256 l 577 256 l 528 0 l 389 0 l 439 256 l 316 256 l 268 0 l 132 0 l 179 256 l 28 256 l 28 387 l 204 387 l 233 534 l 74 534 l 74 666 l 256 666 l 305 923 l 444 923 l 395 666 l 520 666 l 569 923 l 705 923 l 656 666 l 807 666 l 807 534 m 370 534 l 341 387 l 464 387 l 494 534 l 370 534 z "},"$":{"ha":739,"x_min":55,"x_max":690,"o":"m 690 289 q 618 127 690 188 q 414 54 545 66 l 414 -75 l 327 -75 l 327 52 q 57 106 172 55 l 57 273 q 190 225 111 246 q 327 200 268 204 l 327 396 l 285 413 q 107 520 159 463 q 55 666 55 578 q 127 814 55 755 q 327 885 199 873 l 327 982 l 414 982 l 414 888 q 675 830 560 881 l 616 682 q 414 731 519 723 l 414 545 q 588 463 536 498 q 666 386 641 428 q 690 289 690 344 m 500 279 q 480 324 500 305 q 414 362 460 342 l 414 205 q 500 279 500 219 m 246 663 q 264 618 246 636 q 327 580 283 600 l 327 729 q 246 663 246 717 z "},"%":{"ha":1166,"x_min":40,"x_max":1126,"o":"m 906 436 q 861 397 875 436 q 846 278 846 359 q 906 119 846 119 q 967 277 967 119 q 906 436 967 436 m 905 568 q 1069 493 1012 568 q 1126 277 1126 418 q 1070 62 1126 135 q 907 -11 1015 -11 q 743 64 800 -11 q 687 279 687 139 q 905 568 687 568 m 259 805 q 213 767 228 805 q 199 647 199 728 q 259 488 199 488 q 319 647 319 488 q 259 805 319 805 m 762 924 l 914 924 l 401 0 l 249 0 l 762 924 m 258 937 q 422 862 364 937 q 479 645 479 787 q 423 430 479 503 q 261 357 367 357 q 97 432 154 357 q 40 648 40 508 q 258 937 40 937 z "},"&":{"ha":970,"x_min":52,"x_max":970,"o":"m 660 72 q 386 -13 539 -13 q 142 58 233 -13 q 52 249 52 129 q 90 397 52 337 q 221 511 128 458 q 152 615 173 565 q 131 723 131 665 q 204 878 131 819 q 398 937 278 937 q 589 883 518 937 q 660 736 660 828 q 616 598 660 660 q 475 480 572 536 l 654 305 q 732 496 700 379 l 933 496 q 780 185 886 317 l 970 0 l 732 0 l 660 72 m 255 268 q 296 181 255 213 q 408 149 336 149 q 543 187 480 149 l 334 396 q 255 268 255 337 m 369 588 q 454 649 427 620 q 482 714 482 678 q 459 769 482 749 q 397 788 437 788 q 333 768 357 788 q 309 711 309 748 q 369 588 309 654 z "},"'":{"ha":457,"x_min":140,"x_max":317,"o":"m 140 924 l 317 924 l 291 591 l 166 591 l 140 924 z "},"(":{"ha":492,"x_min":59,"x_max":407,"o":"m 249 -142 q 108 109 157 -34 q 59 419 59 253 q 108 731 59 585 q 249 987 157 877 l 407 987 q 273 720 319 866 q 227 419 227 574 q 273 120 227 265 q 406 -142 319 -24 l 249 -142 z "},")":{"ha":492,"x_min":84,"x_max":433,"o":"m 242 987 q 384 730 335 876 q 433 418 433 584 q 384 109 433 252 q 242 -142 335 -34 l 86 -142 q 217 118 171 -25 q 264 418 264 262 q 218 720 264 574 q 84 987 173 866 l 242 987 z "},"*":{"ha":705,"x_min":40,"x_max":666,"o":"m 269 983 l 435 983 l 409 751 l 645 817 l 666 657 l 451 642 l 591 454 l 448 378 l 350 576 l 263 379 l 114 454 l 253 642 l 40 659 l 65 817 l 295 751 l 269 983 z "},"+":{"ha":739,"x_min":55,"x_max":683,"o":"m 300 143 l 300 387 l 55 387 l 55 525 l 300 525 l 300 772 l 439 772 l 439 525 l 683 525 l 683 387 l 439 387 l 439 143 l 300 143 z "},",":{"ha":376,"x_min":40,"x_max":290,"o":"m 281 150 l 290 136 q 179 -167 258 12 l 40 -167 q 104 150 80 -4 l 281 150 z "},"-":{"ha":473,"x_min":67,"x_max":406,"o":"m 406 331 l 67 331 l 67 489 l 406 489 l 406 331 z "},".":{"ha":369,"x_min":74,"x_max":295,"o":"m 295 91 q 295 66 295 91 q 266 12 295 41 q 184 -17 237 -17 q 103 11 132 -17 q 74 91 74 39 q 102 171 74 143 q 184 198 131 198 q 266 170 237 198 q 295 91 295 142 z "},"/":{"ha":534,"x_min":9,"x_max":528,"o":"m 353 924 l 528 924 l 184 0 l 9 0 l 353 924 z "},":":{"ha":369,"x_min":74,"x_max":295,"o":"m 295 91 q 295 66 295 91 q 266 12 295 41 q 184 -17 237 -17 q 103 11 132 -17 q 74 91 74 39 q 102 171 74 143 q 184 198 131 198 q 266 170 237 198 q 295 91 295 142 m 295 613 q 295 587 295 613 q 266 533 295 562 q 184 505 237 505 q 103 533 132 505 q 74 612 74 560 q 185 720 74 720 q 266 692 238 720 q 295 613 295 664 z "},";":{"ha":376,"x_min":40,"x_max":295,"o":"m 104 150 l 281 150 l 290 136 q 179 -167 258 12 l 40 -167 q 104 150 80 -4 m 295 613 q 295 587 295 613 q 266 533 295 562 q 184 505 237 505 q 103 533 132 505 q 74 612 74 560 q 185 720 74 720 q 266 692 238 720 q 295 613 295 664 z "},"<":{"ha":739,"x_min":55,"x_max":683,"o":"m 683 279 l 683 128 l 55 405 l 55 496 l 683 809 l 683 657 l 251 457 l 683 279 z "},"=":{"ha":739,"x_min":55,"x_max":683,"o":"m 683 264 l 55 264 l 55 402 l 683 402 l 683 264 m 683 508 l 55 508 l 55 647 l 683 647 l 683 508 z "},">":{"ha":739,"x_min":55,"x_max":683,"o":"m 55 128 l 55 279 l 488 457 l 55 657 l 55 809 l 683 496 l 683 405 l 55 128 z "},"?":{"ha":744,"x_min":91,"x_max":674,"o":"m 463 91 q 463 65 463 91 q 434 12 463 40 q 352 -17 405 -17 q 271 11 300 -17 q 242 91 242 39 q 271 171 242 143 q 352 198 299 198 q 435 170 406 198 q 463 91 463 142 m 430 306 l 262 306 l 262 353 q 288 459 262 414 q 382 553 314 503 q 470 631 449 602 q 492 699 492 661 q 461 760 492 738 q 376 782 431 782 q 160 720 281 782 l 91 858 q 390 937 233 937 q 597 875 520 937 q 674 708 674 812 q 642 588 674 638 q 522 474 611 537 q 445 404 460 427 q 430 344 430 381 l 430 306 z "},"@":{"ha":1161,"x_min":65,"x_max":1097,"o":"m 616 580 q 494 531 538 580 q 449 396 449 482 q 558 263 449 263 q 645 303 615 263 q 680 433 674 343 l 689 573 q 616 580 658 580 m 717 229 q 540 147 648 147 q 367 214 432 147 q 303 399 303 282 q 388 614 303 532 q 609 695 473 695 q 727 685 663 695 q 836 660 791 675 l 822 350 q 869 263 822 263 q 934 322 910 263 q 958 477 958 381 q 865 724 961 628 q 621 817 770 820 q 401 764 496 818 q 255 612 305 711 q 205 384 204 513 q 298 116 205 209 q 568 23 392 23 q 873 81 711 23 l 873 -40 q 573 -98 739 -98 q 199 29 333 -98 q 65 381 65 155 q 133 664 65 536 q 328 863 201 791 q 620 936 455 936 q 869 879 760 936 q 1037 717 977 822 q 1097 474 1096 612 q 1031 240 1097 336 q 862 147 965 145 q 779 170 816 147 q 727 229 743 192 l 717 229 z "},"A":{"ha":893,"x_min":0,"x_max":893,"o":"m 893 0 l 682 0 l 615 220 l 278 220 l 211 0 l 0 0 l 326 928 l 565 928 l 893 0 m 327 384 l 568 384 l 463 722 q 447 784 452 760 q 327 384 428 708 z "},"B":{"ha":869,"x_min":117,"x_max":801,"o":"m 433 402 l 312 402 l 312 161 l 440 161 q 559 192 520 161 q 598 287 598 223 q 433 402 598 402 m 312 763 l 312 558 l 426 558 q 542 583 506 558 q 577 662 577 607 q 539 740 577 717 q 415 763 500 763 l 312 763 m 117 0 l 117 924 l 404 924 q 689 868 600 924 q 778 690 778 812 q 739 555 778 608 q 635 490 701 501 l 635 484 q 762 411 722 465 q 801 268 801 358 q 710 71 801 141 q 462 0 618 0 l 117 0 z "},"C":{"ha":824,"x_min":73,"x_max":779,"o":"m 508 774 q 337 691 398 774 q 277 459 277 607 q 508 150 277 150 q 744 199 607 150 l 744 34 q 490 -13 631 -13 q 182 110 289 -13 q 75 461 75 232 q 192 809 73 677 q 508 937 311 940 q 779 872 643 937 l 716 713 q 508 774 588 774 z "},"D":{"ha":958,"x_min":117,"x_max":883,"o":"m 396 161 q 679 466 679 161 q 416 763 679 763 l 312 763 l 312 161 l 396 161 m 407 924 q 757 805 632 924 q 883 464 883 686 q 753 121 883 243 q 378 0 623 0 l 117 0 l 117 924 l 407 924 z "},"E":{"ha":725,"x_min":117,"x_max":648,"o":"m 648 161 l 648 0 l 117 0 l 117 924 l 648 924 l 648 763 l 312 763 l 312 560 l 625 560 l 625 400 l 312 400 l 312 161 l 648 161 z "},"F":{"ha":711,"x_min":117,"x_max":646,"o":"m 309 365 l 309 0 l 117 0 l 117 924 l 646 924 l 646 763 l 309 763 l 309 525 l 622 525 l 622 365 l 309 365 z "},"G":{"ha":937,"x_min":75,"x_max":833,"o":"m 467 356 l 467 519 l 833 519 l 833 40 q 505 -13 675 -13 q 186 110 296 -13 q 75 460 75 233 q 203 812 75 686 q 558 937 332 937 q 832 881 701 937 l 767 723 q 557 774 666 774 q 354 688 430 774 q 277 456 277 603 q 338 230 277 309 q 517 150 400 150 q 642 163 579 150 l 642 356 l 467 356 z "},"H":{"ha":990,"x_min":117,"x_max":873,"o":"m 873 924 l 873 0 l 678 0 l 678 399 l 312 399 l 312 0 l 117 0 l 117 924 l 312 924 l 312 562 l 678 562 l 678 924 l 873 924 z "},"I":{"ha":428,"x_min":117,"x_max":312,"o":"m 312 0 l 117 0 l 117 924 l 312 924 l 312 0 z "},"J":{"ha":428,"x_min":-96,"x_max":312,"o":"m 312 60 q 238 -187 312 -103 q 20 -272 164 -272 q -96 -258 -46 -272 l -96 -95 q -4 -107 -46 -107 q 88 -68 60 -107 q 117 58 117 -28 l 117 924 l 312 924 l 312 60 z "},"K":{"ha":859,"x_min":117,"x_max":859,"o":"m 312 0 l 117 0 l 117 924 l 312 924 l 312 501 l 389 609 l 640 924 l 857 924 l 534 515 l 859 0 l 637 0 l 395 389 l 312 330 l 312 0 z "},"L":{"ha":731,"x_min":117,"x_max":687,"o":"m 687 0 l 117 0 l 117 924 l 312 924 l 312 161 l 687 161 l 687 0 z "},"M":{"ha":1220,"x_min":117,"x_max":1104,"o":"m 921 437 q 922 508 921 482 q 931 723 922 534 l 925 723 l 687 0 l 508 0 l 285 725 l 279 725 q 291 430 291 496 l 291 0 l 117 0 l 117 924 l 383 924 l 602 218 l 605 218 l 837 924 l 1104 924 l 1104 0 l 921 0 l 921 437 z "},"N":{"ha":1052,"x_min":117,"x_max":936,"o":"m 936 924 l 936 0 l 687 0 l 285 699 l 279 699 q 291 435 291 509 l 291 0 l 117 0 l 117 924 l 363 924 l 765 232 l 769 232 q 760 487 760 405 l 760 924 l 936 924 z "},"O":{"ha":1030,"x_min":75,"x_max":955,"o":"m 516 775 q 340 697 400 775 q 281 463 281 618 q 515 152 281 152 q 749 463 749 152 q 516 775 749 775 m 189 817 q 517 938 304 938 q 842 815 730 938 q 955 463 955 692 q 841 110 955 233 q 515 -13 727 -13 q 189 110 303 -13 q 75 464 75 233 q 189 817 75 695 z "},"P":{"ha":812,"x_min":117,"x_max":755,"o":"m 312 763 l 312 489 l 376 489 q 557 628 557 489 q 519 731 557 698 q 401 763 482 763 l 312 763 m 411 924 q 667 851 580 924 q 755 633 755 779 q 662 408 755 487 q 396 329 569 329 l 312 329 l 312 0 l 117 0 l 117 924 l 411 924 z "},"Q":{"ha":1030,"x_min":75,"x_max":955,"o":"m 516 775 q 340 697 400 775 q 281 463 281 618 q 515 152 281 152 q 749 463 749 152 q 516 775 749 775 m 955 463 q 897 190 955 300 q 727 28 839 79 l 950 -220 l 699 -220 l 529 -13 l 515 -13 q 189 110 303 -13 q 75 464 75 233 q 189 817 75 695 q 517 938 304 938 q 842 815 730 938 q 955 463 955 692 z "},"R":{"ha":855,"x_min":117,"x_max":855,"o":"m 312 355 l 312 0 l 117 0 l 117 924 l 385 924 q 664 856 573 924 q 755 647 755 787 q 710 502 755 566 q 583 402 666 439 q 855 0 791 91 l 637 0 l 416 355 l 312 355 m 312 763 l 312 514 l 376 514 q 513 545 468 514 q 557 641 557 576 q 512 735 557 706 q 371 763 468 763 l 312 763 z "},"S":{"ha":713,"x_min":60,"x_max":661,"o":"m 661 256 q 572 60 661 132 q 327 -13 482 -13 q 60 43 173 -13 l 60 225 q 218 166 153 184 q 342 149 282 149 q 436 174 402 149 q 470 247 470 199 q 454 296 470 275 q 412 335 439 317 q 295 396 385 354 q 163 475 204 439 q 70 676 70 555 q 153 867 70 797 q 383 937 236 937 q 657 872 507 937 l 594 720 q 471 762 520 750 q 372 774 422 774 q 292 749 322 774 q 262 680 262 723 q 312 598 262 631 q 436 534 336 581 q 613 409 565 472 q 661 256 661 347 z "},"T":{"ha":749,"x_min":26,"x_max":723,"o":"m 473 761 l 473 0 l 277 0 l 277 761 l 26 761 l 26 924 l 723 924 l 723 761 l 473 761 z "},"U":{"ha":978,"x_min":110,"x_max":870,"o":"m 673 924 l 869 924 l 869 326 q 765 79 870 172 q 485 -13 661 -15 q 208 79 306 -13 q 110 329 110 171 l 110 924 l 305 924 l 305 358 q 349 201 305 250 q 489 152 392 152 q 629 202 586 152 q 673 360 673 251 l 673 924 z "},"V":{"ha":841,"x_min":0,"x_max":841,"o":"m 468 374 l 643 924 l 841 924 l 527 0 l 313 0 l 0 924 l 198 924 l 371 374 q 401 264 384 331 q 421 171 417 197 q 468 374 428 234 z "},"W":{"ha":1251,"x_min":0,"x_max":1251,"o":"m 1251 924 l 1016 0 l 793 0 l 668 485 q 645 591 661 508 q 625 701 628 673 q 606 591 622 667 l 583 484 l 458 0 l 236 0 l 0 924 l 192 924 l 311 420 q 356 178 343 272 q 373 285 360 214 q 399 407 385 357 l 534 924 l 718 924 l 853 407 q 875 300 862 376 q 895 178 886 243 q 915 298 901 220 q 941 420 930 376 l 1058 924 l 1251 924 z "},"X":{"ha":863,"x_min":0,"x_max":863,"o":"m 551 466 l 863 0 l 640 0 l 425 350 l 210 0 l 0 0 l 306 477 l 20 924 l 236 924 l 435 591 l 630 924 l 841 924 l 551 466 z "},"Y":{"ha":807,"x_min":0,"x_max":807,"o":"m 501 0 l 306 0 l 306 353 l 0 924 l 212 924 l 404 543 l 597 924 l 807 924 l 501 360 l 501 0 z "},"Z":{"ha":749,"x_min":31,"x_max":718,"o":"m 718 161 l 718 0 l 31 0 l 31 127 l 474 762 l 43 762 l 43 924 l 706 924 l 706 798 l 264 161 l 718 161 z "},"[":{"ha":428,"x_min":91,"x_max":396,"o":"m 396 -8 l 396 -142 l 91 -142 l 91 987 l 396 987 l 396 854 l 255 854 l 255 -8 l 396 -8 z "},"\\":{"ha":534,"x_min":8,"x_max":527,"o":"m 8 924 l 183 924 l 527 0 l 352 0 l 8 924 z "},"]":{"ha":428,"x_min":32,"x_max":338,"o":"m 32 -142 l 32 -8 l 173 -8 l 173 854 l 32 854 l 32 987 l 338 987 l 338 -142 l 32 -142 z "},"^":{"ha":689,"x_min":5,"x_max":685,"o":"m 154 329 l 5 329 l 282 929 l 373 929 l 685 329 l 534 329 l 331 735 l 154 329 z "},"_":{"ha":532,"x_min":-3,"x_max":534,"o":"m 534 -117 l 534 -205 l -3 -205 l -3 -117 l 534 -117 z "},"`":{"ha":767,"x_min":190,"x_max":572,"o":"m 572 874 l 454 871 q 410 896 448 875 q 349 934 373 918 q 212 1041 262 1000 q 190 1076 205 1048 l 385 1079 q 435 1034 393 1069 q 503 973 478 999 q 547 918 503 973 q 559 896 550 913 q 572 874 568 879 z "},"a":{"ha":782,"x_min":54,"x_max":685,"o":"m 685 0 l 550 0 l 513 96 l 508 96 q 407 11 459 34 q 273 -13 356 -13 q 112 46 171 -13 q 54 213 54 105 q 132 376 54 322 q 370 436 209 430 l 493 440 l 493 470 q 383 578 493 578 q 184 527 299 578 l 120 657 q 388 721 242 721 q 609 658 534 721 q 685 470 685 595 l 685 0 m 493 269 l 493 327 l 418 325 q 293 295 334 322 q 252 210 252 267 q 345 128 252 128 q 453 167 413 128 q 493 269 493 205 z "},"b":{"ha":819,"x_min":101,"x_max":761,"o":"m 530 199 q 547 226 530 199 q 565 357 565 254 q 530 512 565 459 q 428 565 495 565 q 328 521 361 565 q 294 376 295 477 l 294 356 q 327 193 294 243 q 435 143 361 143 q 530 199 495 143 m 294 615 q 491 720 362 720 q 691 622 620 720 q 761 352 761 524 q 688 84 761 180 q 489 -13 615 -13 q 294 78 364 -13 l 281 78 l 249 0 l 101 0 l 101 983 l 294 983 l 294 755 q 286 615 294 706 l 294 615 z "},"c":{"ha":666,"x_min":58,"x_max":625,"o":"m 388 -13 q 58 350 58 -13 q 148 625 58 529 q 405 720 237 720 q 625 672 526 720 l 568 522 q 405 565 463 565 q 255 354 255 565 q 405 143 255 143 q 603 205 510 143 l 603 40 q 510 -1 558 11 q 388 -13 463 -13 z "},"d":{"ha":819,"x_min":58,"x_max":718,"o":"m 525 91 q 330 -13 459 -13 q 129 84 200 -13 q 58 354 58 181 q 131 623 58 527 q 334 720 204 720 q 534 616 463 720 l 540 616 q 525 757 525 695 l 525 983 l 718 983 l 718 0 l 571 0 l 534 91 l 525 91 m 253 350 q 393 141 253 141 q 501 184 466 141 q 539 330 536 228 l 539 350 q 503 514 539 464 q 389 563 468 563 q 289 508 324 563 q 253 350 253 453 z "},"e":{"ha":765,"x_min":58,"x_max":709,"o":"m 528 433 q 492 543 527 504 q 394 583 456 583 q 298 544 333 583 q 258 433 263 505 l 528 433 m 669 37 q 421 -13 569 -13 q 154 81 250 -13 q 58 350 58 175 q 147 623 58 526 q 389 720 237 720 q 626 634 542 720 q 709 399 709 548 l 709 305 l 253 305 q 302 177 256 223 q 430 131 348 131 q 669 186 551 131 l 669 37 z "},"f":{"ha":501,"x_min":26,"x_max":559,"o":"m 492 706 l 492 562 l 325 562 l 325 0 l 132 0 l 132 562 l 26 562 l 26 654 l 132 706 l 132 758 q 192 935 132 879 q 382 990 251 990 q 559 961 482 990 l 510 819 q 407 837 451 837 q 344 814 363 837 q 325 751 325 791 l 325 706 l 492 706 z "},"g":{"ha":731,"x_min":4,"x_max":716,"o":"m 206 -34 q 171 -99 171 -59 q 209 -163 171 -140 q 316 -185 247 -185 q 478 -157 419 -185 q 537 -79 537 -128 q 503 -25 537 -40 q 395 -9 470 -9 l 295 -9 q 206 -34 243 -9 m 716 706 l 716 609 l 605 580 q 635 474 635 533 q 556 297 635 361 q 336 233 477 233 l 273 238 q 243 187 243 216 q 350 146 243 146 l 470 146 q 647 96 586 146 q 708 -51 708 46 q 604 -243 708 -174 q 308 -311 501 -311 q 82 -260 161 -311 q 4 -115 4 -209 q 44 -8 4 -51 q 161 53 84 34 q 108 95 130 67 q 86 159 86 124 q 108 221 86 194 q 178 275 131 248 q 89 354 121 301 q 57 477 57 407 q 132 657 57 593 q 347 720 208 720 q 418 714 374 720 q 470 706 463 708 l 716 706 m 347 603 q 241 475 241 603 q 268 383 241 416 q 347 350 295 350 q 426 383 400 350 q 451 475 451 416 q 347 603 451 603 z "},"h":{"ha":850,"x_min":101,"x_max":753,"o":"m 753 461 l 753 0 l 560 0 l 560 413 q 447 565 560 565 q 330 510 366 565 q 294 332 294 456 l 294 0 l 101 0 l 101 983 l 294 983 l 294 783 q 285 616 294 730 l 295 616 q 500 720 359 720 q 688 653 624 720 q 753 461 753 586 z "},"i":{"ha":395,"x_min":93,"x_max":303,"o":"m 294 706 l 294 0 l 101 0 l 101 706 l 294 706 m 198 794 q 93 889 93 794 q 198 983 93 983 q 303 889 303 983 q 276 819 303 843 q 198 794 249 794 z "},"j":{"ha":395,"x_min":-83,"x_max":303,"o":"m 294 -77 q 229 -250 294 -189 q 44 -311 164 -311 q -83 -295 -28 -311 l -83 -143 q 8 -155 -37 -155 q 101 -48 101 -155 l 101 706 l 294 706 l 294 -77 m 198 794 q 93 889 93 794 q 198 983 93 983 q 303 889 303 983 q 276 819 303 843 q 198 794 249 794 z "},"k":{"ha":803,"x_min":101,"x_max":803,"o":"m 294 0 l 101 0 l 101 983 l 294 983 l 294 545 l 284 384 l 286 384 l 370 492 l 568 706 l 786 706 l 505 400 l 803 0 l 580 0 l 376 286 l 294 220 l 294 0 z "},"l":{"ha":395,"x_min":101,"x_max":294,"o":"m 294 983 l 294 0 l 101 0 l 101 983 l 294 983 z "},"m":{"ha":1271,"x_min":101,"x_max":1174,"o":"m 734 355 l 734 0 l 541 0 l 541 413 q 515 528 541 490 q 435 565 489 565 q 327 512 361 565 q 294 332 294 458 l 294 0 l 101 0 l 101 706 l 249 706 l 275 616 l 285 616 q 367 692 313 665 q 490 720 421 720 q 705 616 650 720 l 723 616 q 805 693 750 666 q 931 720 861 720 q 1114 657 1053 720 q 1174 461 1174 595 l 1174 0 l 981 0 l 981 413 q 955 528 981 490 q 875 565 929 565 q 769 514 803 565 q 734 355 734 463 z "},"n":{"ha":850,"x_min":101,"x_max":753,"o":"m 753 461 l 753 0 l 560 0 l 560 413 q 533 528 560 490 q 447 565 506 565 q 330 512 367 565 q 294 332 294 458 l 294 0 l 101 0 l 101 706 l 249 706 l 275 616 l 285 616 q 373 693 317 666 q 502 720 430 720 q 690 653 626 720 q 753 461 753 587 z "},"o":{"ha":801,"x_min":56,"x_max":746,"o":"m 512 513 q 494 539 512 513 q 400 565 477 565 q 289 513 324 565 q 255 354 255 461 q 290 195 255 247 q 401 142 325 142 q 512 195 477 142 q 546 354 546 247 q 512 513 546 461 m 402 720 q 651 621 556 722 q 743 355 746 520 q 652 85 743 182 q 399 -13 561 -13 q 151 87 245 -14 q 58 355 56 188 q 148 624 58 527 q 402 720 239 720 z "},"p":{"ha":819,"x_min":101,"x_max":762,"o":"m 294 -25 l 294 -311 l 101 -311 l 101 706 l 258 706 l 285 615 l 294 615 q 491 720 362 720 q 690 623 619 720 q 762 356 761 527 q 687 85 762 185 q 489 -13 613 -15 q 294 78 364 -13 l 284 78 q 294 -25 294 -14 m 565 357 q 532 514 565 462 q 430 565 500 565 q 328 521 361 565 q 294 376 295 477 l 294 356 q 327 193 294 243 q 435 143 361 143 q 565 357 565 143 z "},"q":{"ha":819,"x_min":58,"x_max":718,"o":"m 255 350 q 289 190 255 242 q 395 138 322 138 q 501 180 467 138 q 539 327 535 223 l 539 350 q 503 513 539 463 q 390 563 468 563 q 255 350 255 563 m 325 -13 q 129 83 199 -13 q 58 352 58 179 q 131 623 58 526 q 331 720 203 720 q 534 616 459 720 l 539 616 l 555 706 l 718 706 l 718 -311 l 525 -311 l 525 -15 q 534 91 525 24 l 525 91 q 325 -13 461 -13 z "},"r":{"ha":588,"x_min":101,"x_max":560,"o":"m 496 720 q 560 714 532 720 l 546 534 q 489 540 522 540 q 345 493 397 540 q 294 360 294 445 l 294 0 l 101 0 l 101 706 l 247 706 l 275 588 l 285 588 q 375 684 319 648 q 496 720 431 720 z "},"s":{"ha":643,"x_min":58,"x_max":594,"o":"m 519 367 q 594 205 594 310 q 518 44 594 100 q 300 -13 442 -13 q 60 28 158 -13 l 60 187 q 181 145 114 162 q 299 128 248 128 q 404 189 404 128 q 376 238 404 219 q 259 296 348 257 q 131 363 170 334 q 75 430 93 393 q 58 522 58 468 q 131 668 58 617 q 335 720 204 720 q 586 664 466 720 l 528 525 q 423 564 467 551 q 335 577 379 577 q 249 531 249 577 q 278 485 249 505 q 393 431 307 466 q 519 367 479 397 z "},"t":{"ha":562,"x_min":29,"x_max":520,"o":"m 315 221 q 337 161 315 181 q 405 141 360 141 q 520 163 451 141 l 520 20 q 339 -13 449 -13 q 176 45 229 -13 q 122 221 122 103 l 122 562 l 29 562 l 29 643 l 136 708 l 192 857 l 315 857 l 315 706 l 513 706 l 513 562 l 315 562 l 315 221 z "},"u":{"ha":850,"x_min":98,"x_max":749,"o":"m 749 0 l 602 0 l 576 91 l 565 91 q 477 14 534 41 q 348 -13 421 -13 q 161 54 225 -13 q 98 246 98 120 l 98 706 l 290 706 l 290 294 q 317 179 290 217 q 404 141 345 141 q 521 195 484 141 q 557 374 557 249 l 557 706 l 749 706 l 749 0 z "},"v":{"ha":736,"x_min":0,"x_max":736,"o":"m 467 0 l 269 0 l 0 706 l 202 706 l 338 304 q 367 159 362 225 l 370 159 q 399 304 373 218 l 534 706 l 736 706 l 467 0 z "},"w":{"ha":1108,"x_min":13,"x_max":1095,"o":"m 892 0 l 682 0 l 628 247 l 554 559 l 550 559 l 421 0 l 213 0 l 13 706 l 205 706 l 286 394 q 326 161 305 316 l 330 161 q 362 368 332 213 l 449 706 l 661 706 l 744 368 q 777 161 774 226 l 780 161 q 800 283 786 200 q 822 394 815 365 l 906 706 l 1095 706 l 892 0 z "},"x":{"ha":749,"x_min":6,"x_max":742,"o":"m 6 0 l 246 361 l 18 706 l 237 706 l 374 482 l 513 706 l 731 706 l 501 361 l 742 0 l 522 0 l 374 242 l 225 0 l 6 0 z "},"y":{"ha":736,"x_min":0,"x_max":736,"o":"m 142 -311 q 44 -301 91 -311 l 44 -147 q 120 -155 81 -155 q 269 -29 227 -155 l 281 5 l 0 706 l 211 706 l 344 309 q 368 186 362 259 l 371 186 q 399 309 378 251 l 529 706 l 736 706 l 437 -91 q 320 -255 396 -199 q 142 -311 244 -311 z "},"z":{"ha":631,"x_min":34,"x_max":593,"o":"m 593 147 l 593 0 l 34 0 l 34 114 l 362 559 l 54 559 l 54 706 l 581 706 l 581 581 l 263 147 l 593 147 z "},"{":{"ha":565,"x_min":56,"x_max":494,"o":"m 494 -142 q 279 -102 341 -142 q 218 34 218 -63 l 218 234 q 176 318 218 289 q 56 347 135 347 l 56 498 q 177 525 136 498 q 218 605 218 553 l 218 812 q 279 947 218 909 q 494 987 341 987 l 494 845 q 409 822 433 843 q 385 756 385 800 l 385 567 q 237 426 381 448 l 237 419 q 385 285 385 397 l 385 91 q 409 24 385 45 q 494 1 433 3 l 494 -142 z "},"|":{"ha":713,"x_min":287,"x_max":426,"o":"m 287 -294 l 287 980 l 426 980 l 426 -294 l 287 -294 z "},"}":{"ha":565,"x_min":70,"x_max":508,"o":"m 70 -142 l 70 1 q 156 24 131 3 q 180 91 180 44 l 180 286 q 217 374 180 341 q 327 419 255 408 l 327 426 q 180 567 184 449 l 180 756 q 156 822 180 801 q 70 845 131 843 l 70 987 q 203 978 153 986 q 287 949 253 970 q 333 897 320 929 q 347 812 346 864 l 347 604 q 508 498 347 498 l 508 347 q 387 320 428 347 q 347 234 347 294 l 347 34 q 321 -72 347 -37 q 235 -125 295 -108 q 70 -142 175 -142 z "},"~":{"ha":739,"x_min":55,"x_max":683,"o":"m 204 425 q 55 348 133 425 l 55 494 q 218 563 121 563 q 385 526 298 563 q 536 488 473 488 q 610 508 570 488 q 683 565 650 529 l 683 418 q 521 350 619 350 q 443 358 482 350 q 347 389 404 366 q 204 425 264 425 z "}," ":{"ha":374,"x_min":0,"x_max":0,"o":""},"©":{"ha":1077,"x_min":63,"x_max":1014,"o":"m 703 602 q 568 638 632 638 q 471 592 504 638 q 437 462 437 545 q 565 285 437 285 q 721 322 649 285 l 721 202 q 562 166 645 166 q 362 244 432 166 q 291 463 291 323 q 361 680 291 602 q 557 757 432 757 q 749 708 652 757 l 703 602 m 872 269 q 898 314 872 269 q 924 462 924 360 q 872 654 924 565 q 731 796 821 744 q 538 848 640 848 q 346 796 435 848 q 205 655 257 745 q 153 461 153 565 q 204 269 153 358 q 345 128 256 180 q 539 77 435 77 q 731 128 642 77 q 872 269 820 179 m 952 228 q 781 53 892 119 q 539 -13 670 -13 q 297 52 407 -13 q 125 227 187 117 q 63 463 63 337 q 126 699 63 588 q 300 873 190 810 q 537 937 410 937 q 775 874 664 937 q 950 700 885 811 q 1014 463 1014 590 q 952 228 1014 337 z "},"×":{"ha":739,"x_min":81,"x_max":657,"o":"m 83 267 l 270 457 l 81 647 l 178 744 l 368 555 l 560 744 l 657 650 l 464 457 l 654 265 l 560 169 l 368 360 l 178 171 l 83 267 z "},"÷":{"ha":739,"x_min":55,"x_max":683,"o":"m 457 237 q 457 214 457 237 q 434 166 457 192 q 369 140 410 140 q 304 165 327 140 q 281 236 281 190 q 304 307 281 283 q 369 331 327 331 q 434 306 411 331 q 457 237 457 282 m 683 387 l 55 387 l 55 525 l 683 525 l 683 387 m 457 677 q 457 655 457 677 q 434 607 457 633 q 369 581 410 581 q 304 606 327 581 q 281 677 281 631 q 304 748 281 723 q 369 773 327 773 q 434 747 411 773 q 457 677 457 722 z "},"ʼ":{"ha":548,"x_min":142,"x_max":446,"o":"m 432 1049 l 446 1029 l 317 700 l 142 700 l 216 1049 l 432 1049 z "},"ऀ":{"ha":0,"x_min":-643,"x_max":-12,"o":"m -329 1030 q -308 1030 -329 1030 q -265 1007 -288 1030 q -243 951 -243 984 q -265 895 -243 918 q -329 872 -288 872 q -391 895 -369 872 q -413 951 -413 918 q -391 1007 -413 983 q -329 1030 -369 1030 m -643 1113 q -340 1239 -523 1239 q -12 1116 -157 1239 l -57 980 q -189 1064 -122 1036 q -334 1093 -256 1093 q -591 982 -473 1093 l -643 1113 z "},"ँ":{"ha":0,"x_min":-563,"x_max":68,"o":"m 68 1094 q -235 968 -52 968 q -563 1091 -418 968 l -518 1227 q -386 1142 -453 1171 q -241 1114 -319 1114 q 15 1225 -102 1114 l 68 1094 m -246 1177 q -267 1177 -246 1177 q -310 1200 -287 1177 q -332 1256 -332 1223 q -310 1312 -332 1288 q -246 1335 -287 1335 q -184 1312 -206 1335 q -162 1256 -162 1288 q -184 1200 -162 1224 q -246 1177 -206 1177 z "},"ं":{"ha":0,"x_min":-350,"x_max":-151,"o":"m -250 1036 q -273 1036 -250 1036 q -324 1063 -297 1036 q -350 1128 -350 1090 q -324 1193 -350 1166 q -250 1220 -298 1220 q -177 1193 -202 1220 q -151 1128 -151 1166 q -177 1063 -151 1091 q -250 1036 -202 1036 z "},"ः":{"ha":389,"x_min":74,"x_max":295,"o":"m 295 91 q 295 66 295 91 q 266 12 295 41 q 184 -17 237 -17 q 103 11 132 -17 q 74 91 74 39 q 102 171 74 143 q 184 198 131 198 q 266 170 237 198 q 295 91 295 142 m 295 613 q 295 587 295 613 q 266 533 295 562 q 184 505 237 505 q 103 533 132 505 q 74 612 74 560 q 185 720 74 720 q 266 692 238 720 q 295 613 295 664 z "},"ऄ":{"ha":1173,"x_min":52,"x_max":1194,"o":"m 829 0 l 829 323 q 730 311 773 311 q 647 315 687 311 l 647 303 q 572 133 647 202 q 374 64 498 64 q 52 172 211 64 l 92 321 q 334 227 220 227 q 428 257 394 227 q 462 338 462 288 q 394 444 462 403 q 228 419 324 425 l 214 418 l 181 569 l 189 569 q 379 609 328 576 q 427 690 427 640 q 400 746 427 725 q 324 767 374 767 q 128 706 236 767 l 81 860 q 331 917 200 917 q 533 851 463 917 q 604 675 604 785 q 535 517 604 580 q 592 463 567 494 q 664 459 627 459 q 829 500 758 459 l 829 770 l 699 770 l 699 905 l 826 905 l 826 942 q 749 1022 826 1022 q 673 1008 730 1022 q 568 994 617 994 q 442 1025 496 994 q 338 1119 387 1056 l 411 1235 q 492 1169 458 1188 q 560 1151 526 1151 q 673 1171 595 1151 q 809 1190 751 1190 q 953 1130 899 1190 q 1006 968 1006 1071 l 1006 905 l 1194 905 l 1194 770 l 1029 770 l 1029 0 l 829 0 z "},"अ":{"ha":1173,"x_min":52,"x_max":1194,"o":"m 829 0 l 829 323 q 730 311 773 311 q 647 315 687 311 l 647 303 q 572 133 647 202 q 374 64 498 64 q 52 172 211 64 l 92 321 q 334 227 220 227 q 428 257 394 227 q 462 338 462 288 q 394 444 462 403 q 228 419 324 425 l 214 418 l 181 569 l 189 569 q 379 609 328 576 q 427 690 427 640 q 400 746 427 725 q 324 767 374 767 q 128 706 236 767 l 81 860 q 331 917 200 917 q 533 851 463 917 q 604 675 604 785 q 535 517 604 580 q 592 463 567 494 q 664 459 627 459 q 829 500 758 459 l 829 770 l 699 770 l 699 905 l 1194 905 l 1194 770 l 1029 770 l 1029 0 l 829 0 z "},"आ":{"ha":1619,"x_min":52,"x_max":1640,"o":"m 829 0 l 829 323 q 730 311 773 311 q 647 315 687 311 l 647 303 q 572 133 647 202 q 374 64 498 64 q 52 172 211 64 l 92 321 q 334 227 220 227 q 428 257 394 227 q 462 338 462 288 q 394 444 462 403 q 228 419 324 425 l 214 418 l 181 569 l 189 569 q 379 609 328 576 q 427 690 427 640 q 400 746 427 725 q 324 767 374 767 q 128 706 236 767 l 81 860 q 331 917 200 917 q 533 851 463 917 q 604 675 604 785 q 535 517 604 580 q 592 463 567 494 q 664 459 627 459 q 829 500 758 459 l 829 770 l 699 770 l 699 905 l 1640 905 l 1640 770 l 1476 770 l 1476 0 l 1275 0 l 1275 770 l 1029 770 l 1029 0 l 829 0 z "},"इ":{"ha":777,"x_min":-21,"x_max":798,"o":"m 278 -4 q 120 40 173 2 q 68 119 68 77 q 99 190 68 161 q 176 219 129 219 q 331 147 251 219 q 476 180 428 150 q 524 244 524 209 q 501 283 524 269 q 439 298 479 298 q 273 251 369 298 l 262 251 q 98 363 148 303 q 48 496 48 422 q 106 618 48 569 q 280 666 164 666 l 434 666 l 434 770 l -21 770 l -21 905 l 798 905 l 798 770 l 635 770 l 635 532 l 318 532 q 252 514 275 532 q 228 466 228 496 q 265 412 228 436 q 462 442 354 442 q 640 386 571 442 q 710 245 710 330 q 646 95 710 160 q 463 8 582 30 l 585 -123 l 461 -203 l 278 -4 z "},"ई":{"ha":777,"x_min":-21,"x_max":798,"o":"m 278 -4 q 120 40 173 2 q 68 119 68 77 q 99 190 68 161 q 176 219 129 219 q 331 147 251 219 q 476 180 428 150 q 524 244 524 209 q 501 283 524 269 q 439 298 479 298 q 273 251 369 298 l 262 251 q 98 363 148 303 q 48 496 48 422 q 106 618 48 569 q 280 666 164 666 l 434 666 l 434 770 l -21 770 l -21 905 l 400 905 q 349 1074 349 982 q 423 1224 349 1166 q 629 1283 497 1283 q 744 1269 688 1283 l 737 1152 q 666 1158 700 1158 q 573 1126 607 1158 q 540 1043 540 1094 q 588 905 540 973 l 798 905 l 798 770 l 635 770 l 635 532 l 318 532 q 252 514 275 532 q 228 466 228 496 q 265 412 228 436 q 462 442 354 442 q 640 386 571 442 q 710 245 710 330 q 646 95 710 160 q 463 8 582 30 l 585 -123 l 461 -203 l 278 -4 z "},"उ":{"ha":777,"x_min":-21,"x_max":798,"o":"m 401 0 q 23 123 204 0 l 74 279 q 220 200 143 228 q 363 172 297 172 q 467 204 429 172 q 504 288 504 236 q 476 363 504 328 q 396 418 449 399 q 241 400 329 403 l 202 398 l 168 560 l 204 562 q 399 600 344 568 q 454 684 454 631 q 385 770 454 745 l -21 770 l -21 905 l 798 905 l 798 770 l 614 770 q 638 661 638 723 q 561 497 638 563 q 664 391 627 453 q 701 258 701 329 q 620 72 701 145 q 401 0 540 0 z "},"ऊ":{"ha":1133,"x_min":-21,"x_max":1154,"o":"m 899 268 q 875 331 899 308 q 808 355 851 355 q 695 311 752 355 q 701 258 701 283 q 620 72 701 145 q 401 0 540 0 q 23 123 204 0 l 74 279 q 220 200 143 228 q 363 172 297 172 q 467 204 429 172 q 504 288 504 236 q 476 363 504 328 q 396 418 449 399 q 241 400 329 403 l 202 398 l 168 560 l 204 562 q 399 600 344 568 q 454 684 454 631 q 385 770 454 745 l -21 770 l -21 905 l 1154 905 l 1154 770 l 614 770 q 638 661 638 723 q 561 497 638 563 q 598 470 579 485 q 779 513 692 513 q 994 438 913 513 q 1074 249 1074 364 q 987 -2 1074 113 l 812 65 q 899 268 899 183 z "},"ऋ":{"ha":1199,"x_min":-21,"x_max":1220,"o":"m 708 0 l 506 0 l 506 222 l 193 67 l 105 220 l 470 394 l 451 407 q 246 482 338 482 q 81 430 176 482 l 32 604 q 220 651 127 651 q 468 570 341 651 l 506 546 l 506 770 l -21 770 l -21 905 l 1220 905 l 1220 770 l 708 770 l 708 491 q 775 483 737 483 q 852 494 812 483 q 836 555 836 525 q 862 605 836 585 q 937 624 888 624 q 1072 595 1020 624 q 1123 516 1123 565 q 1071 418 1123 466 q 1138 231 1138 316 q 1080 88 1138 146 q 913 15 1022 30 l 824 136 q 934 184 900 154 q 968 256 968 215 q 938 345 968 298 q 784 322 865 322 q 708 328 748 322 l 708 0 z "},"ऌ":{"ha":1161,"x_min":-21,"x_max":1182,"o":"m 965 -110 q 789 -57 858 -110 q 720 76 720 -4 q 769 192 720 144 q 895 251 817 241 q 923 351 923 302 q 898 427 923 401 q 830 454 873 454 q 716 386 766 454 q 641 190 666 319 l 456 244 q 514 427 474 346 q 394 468 459 468 q 291 427 330 468 q 253 328 253 386 q 288 211 253 270 q 409 72 322 153 l 265 -9 q 62 378 62 176 q 138 563 62 487 q 343 640 213 640 q 610 555 489 640 q 793 626 690 621 l 793 770 l -21 770 l -21 905 l 1182 905 l 1182 770 l 996 770 l 996 570 q 1079 472 1050 532 q 1107 350 1107 411 q 1090 234 1107 288 q 1049 143 1074 180 l 1020 143 q 920 122 951 143 q 889 72 889 101 q 912 26 889 44 q 985 8 935 8 q 1102 35 1036 8 l 1123 -81 q 965 -110 1049 -110 z "},"ऍ":{"ha":898,"x_min":-21,"x_max":919,"o":"m 556 -15 q 503 60 556 25 l 239 237 q 134 345 162 289 q 106 498 106 402 l 106 770 l -21 770 l -21 905 l 919 905 l 919 770 l 770 770 l 770 532 q 750 408 770 460 q 685 306 731 357 l 527 385 q 559 470 550 430 q 568 572 568 510 l 568 770 l 307 770 l 307 494 q 325 400 307 431 q 400 331 343 369 l 663 157 q 748 78 723 117 q 774 -7 774 39 q 734 -137 774 -67 l 531 -91 q 556 -15 556 -44 m 752 1101 q 449 975 632 975 q 121 1098 265 975 l 166 1234 q 298 1149 231 1178 q 443 1121 364 1121 q 699 1232 582 1121 l 752 1101 z "},"ऎ":{"ha":898,"x_min":-21,"x_max":919,"o":"m 556 -15 q 503 60 556 25 l 239 237 q 134 345 162 289 q 106 498 106 402 l 106 770 l -21 770 l -21 905 l 567 905 l 567 942 q 490 1022 567 1022 q 414 1008 470 1022 q 309 994 357 994 q 183 1025 237 994 q 79 1119 128 1056 l 152 1235 q 233 1169 199 1188 q 301 1151 267 1151 q 414 1171 336 1151 q 550 1190 492 1190 q 694 1130 640 1190 q 747 968 747 1071 l 747 905 l 919 905 l 919 770 l 770 770 l 770 532 q 750 408 770 460 q 685 306 731 357 l 527 385 q 559 470 550 430 q 568 572 568 510 l 568 770 l 307 770 l 307 494 q 325 400 307 431 q 400 331 343 369 l 663 157 q 748 78 723 117 q 774 -7 774 39 q 734 -137 774 -67 l 531 -91 q 556 -15 556 -44 z "},"ए":{"ha":898,"x_min":-21,"x_max":919,"o":"m 556 -15 q 503 60 556 25 l 239 237 q 134 345 162 289 q 106 498 106 402 l 106 770 l -21 770 l -21 905 l 919 905 l 919 770 l 770 770 l 770 532 q 750 408 770 460 q 685 306 731 357 l 527 385 q 559 470 550 430 q 568 572 568 510 l 568 770 l 307 770 l 307 494 q 325 400 307 431 q 400 331 343 369 l 663 157 q 748 78 723 117 q 774 -7 774 39 q 734 -137 774 -67 l 531 -91 q 556 -15 556 -44 z "},"ऐ":{"ha":898,"x_min":-21,"x_max":919,"o":"m 556 -15 q 503 60 556 25 l 239 237 q 134 345 162 289 q 106 498 106 402 l 106 770 l -21 770 l -21 905 l 510 905 l 228 1181 l 376 1290 l 745 905 l 919 905 l 919 770 l 770 770 l 770 532 q 750 408 770 460 q 685 306 731 357 l 527 385 q 559 470 550 430 q 568 572 568 510 l 568 770 l 307 770 l 307 494 q 325 400 307 431 q 400 331 343 369 l 663 157 q 748 78 723 117 q 774 -7 774 39 q 734 -137 774 -67 l 531 -91 q 556 -15 556 -44 z "},"ऑ":{"ha":1619,"x_min":52,"x_max":1677,"o":"m 829 0 l 829 323 q 730 311 773 311 q 647 315 687 311 l 647 303 q 572 133 647 202 q 374 64 498 64 q 52 172 211 64 l 92 321 q 334 227 220 227 q 428 257 394 227 q 462 338 462 288 q 394 444 462 403 q 228 419 324 425 l 214 418 l 181 569 l 189 569 q 379 609 328 576 q 427 690 427 640 q 400 746 427 725 q 324 767 374 767 q 128 706 236 767 l 81 860 q 331 917 200 917 q 533 851 463 917 q 604 675 604 785 q 535 517 604 580 q 592 463 567 494 q 664 459 627 459 q 829 500 758 459 l 829 770 l 699 770 l 699 905 l 1640 905 l 1640 770 l 1476 770 l 1476 0 l 1275 0 l 1275 770 l 1029 770 l 1029 0 l 829 0 m 1677 1095 q 1373 968 1557 968 q 1046 1092 1190 968 l 1090 1228 q 1222 1143 1156 1171 q 1368 1115 1289 1115 q 1624 1226 1507 1115 l 1677 1095 z "},"ऒ":{"ha":1619,"x_min":52,"x_max":1640,"o":"m 829 0 l 829 323 q 730 311 773 311 q 647 315 687 311 l 647 303 q 572 133 647 202 q 374 64 498 64 q 52 172 211 64 l 92 321 q 334 227 220 227 q 428 257 394 227 q 462 338 462 288 q 394 444 462 403 q 228 419 324 425 l 214 418 l 181 569 l 189 569 q 379 609 328 576 q 427 690 427 640 q 400 746 427 725 q 324 767 374 767 q 128 706 236 767 l 81 860 q 331 917 200 917 q 533 851 463 917 q 604 675 604 785 q 535 517 604 580 q 592 463 567 494 q 664 459 627 459 q 829 500 758 459 l 829 770 l 699 770 l 699 905 l 1272 905 l 1272 942 q 1195 1022 1272 1022 q 1119 1008 1175 1022 q 1014 994 1062 994 q 888 1025 942 994 q 784 1119 833 1056 l 857 1235 q 938 1169 904 1188 q 1006 1151 972 1151 q 1119 1171 1041 1151 q 1255 1190 1197 1190 q 1399 1130 1345 1190 q 1452 968 1452 1071 l 1452 905 l 1640 905 l 1640 770 l 1476 770 l 1476 0 l 1275 0 l 1275 770 l 1029 770 l 1029 0 l 829 0 z "},"ओ":{"ha":1619,"x_min":52,"x_max":1640,"o":"m 829 0 l 829 323 q 730 311 773 311 q 647 315 687 311 l 647 303 q 572 133 647 202 q 374 64 498 64 q 52 172 211 64 l 92 321 q 334 227 220 227 q 428 257 394 227 q 462 338 462 288 q 394 444 462 403 q 228 419 324 425 l 214 418 l 181 569 l 189 569 q 379 609 328 576 q 427 690 427 640 q 400 746 427 725 q 324 767 374 767 q 128 706 236 767 l 81 860 q 331 917 200 917 q 533 851 463 917 q 604 675 604 785 q 535 517 604 580 q 592 463 567 494 q 664 459 627 459 q 829 500 758 459 l 829 770 l 699 770 l 699 905 l 1209 905 l 927 1181 l 1074 1290 l 1444 905 l 1640 905 l 1640 770 l 1476 770 l 1476 0 l 1275 0 l 1275 770 l 1029 770 l 1029 0 l 829 0 z "},"औ":{"ha":1619,"x_min":52,"x_max":1640,"o":"m 829 0 l 829 323 q 730 311 773 311 q 647 315 687 311 l 647 303 q 572 133 647 202 q 374 64 498 64 q 52 172 211 64 l 92 321 q 334 227 220 227 q 428 257 394 227 q 462 338 462 288 q 394 444 462 403 q 228 419 324 425 l 214 418 l 181 569 l 189 569 q 379 609 328 576 q 427 690 427 640 q 400 746 427 725 q 324 767 374 767 q 128 706 236 767 l 81 860 q 331 917 200 917 q 533 851 463 917 q 604 675 604 785 q 535 517 604 580 q 592 463 567 494 q 664 459 627 459 q 829 500 758 459 l 829 770 l 699 770 l 699 905 l 1004 905 l 725 1125 l 863 1244 l 1261 905 l 1277 905 l 1125 1270 l 1303 1321 l 1461 905 l 1640 905 l 1640 770 l 1476 770 l 1476 0 l 1275 0 l 1275 770 l 1029 770 l 1029 0 l 829 0 z "},"क":{"ha":1197,"x_min":-21,"x_max":1218,"o":"m 699 0 l 499 0 l 499 176 q 346 138 430 138 q 193 178 262 138 q 86 283 124 218 q 48 422 48 348 q 112 581 48 519 q 192 629 143 612 q 303 647 241 647 q 499 611 409 650 l 499 770 l -21 770 l -21 905 l 1218 905 l 1218 770 l 699 770 l 699 580 q 808 593 749 593 q 1029 517 942 593 q 1116 327 1116 440 q 1027 78 1116 194 l 852 138 q 932 334 932 246 q 905 401 932 375 q 832 427 878 427 q 699 364 759 427 l 699 0 m 218 395 q 218 372 218 395 q 249 321 218 350 q 326 292 279 292 q 418 315 374 292 q 499 383 463 338 l 499 468 q 357 500 428 500 q 252 470 286 500 q 218 395 218 440 z "},"ख":{"ha":1336,"x_min":-21,"x_max":1357,"o":"m 990 0 l 990 13 q 786 -7 895 -7 q 466 47 617 -7 q 212 204 315 101 q 51 426 110 306 q 28 507 28 473 q 52 567 28 541 q 111 592 76 592 q 172 576 146 592 q 228 520 197 560 l 231 514 q 288 577 271 539 q 305 673 305 615 l 305 770 l -21 770 l -21 905 l 1357 905 l 1357 770 l 1191 770 l 1191 0 l 990 0 m 829 369 q 990 435 924 369 l 990 516 q 842 545 923 545 q 762 519 791 545 q 734 456 734 494 q 760 394 734 419 q 829 369 787 369 m 781 135 q 990 167 893 135 l 990 256 q 843 229 929 229 q 654 303 731 229 q 577 482 577 377 q 637 625 577 570 q 804 680 696 680 q 990 649 913 680 l 990 770 l 506 770 l 506 662 q 470 478 506 556 q 317 331 428 389 q 348 297 333 313 q 781 135 510 135 z "},"ग":{"ha":1002,"x_min":-21,"x_max":1023,"o":"m 657 0 l 657 770 l 409 770 l 409 303 q 330 211 409 211 q 209 249 272 211 q 104 340 145 288 q 62 431 62 392 q 81 479 62 461 q 138 496 100 496 l 208 496 l 208 770 l -21 770 l -21 905 l 1023 905 l 1023 770 l 858 770 l 858 0 l 657 0 z "},"घ":{"ha":1050,"x_min":-21,"x_max":1071,"o":"m 390 355 q 418 295 390 318 q 500 272 447 272 q 608 297 552 272 q 706 368 665 322 l 706 770 l 276 770 q 265 711 265 745 q 291 647 265 677 q 371 603 317 617 q 510 625 432 625 l 542 625 l 576 466 l 560 466 q 433 434 475 466 q 390 355 390 402 m 706 0 l 706 141 q 514 98 630 98 q 384 121 443 98 q 286 182 324 144 q 226 269 247 220 q 204 371 204 317 q 239 500 204 443 q 108 593 153 532 q 62 727 62 653 q 66 770 62 747 l -21 770 l -21 905 l 1071 905 l 1071 770 l 906 770 l 906 0 l 706 0 z "},"ङ":{"ha":1010,"x_min":-21,"x_max":1031,"o":"m 465 -9 q 73 83 273 -9 l 110 231 q 435 139 284 139 q 554 163 515 139 q 593 228 593 187 q 568 277 593 258 q 494 295 542 295 q 319 250 405 295 l 303 250 q 138 362 190 301 q 87 496 87 423 q 142 617 87 569 q 308 666 197 666 l 501 666 l 501 770 l -21 770 l -21 905 l 1031 905 l 1031 770 l 701 770 l 701 532 l 356 532 q 294 514 315 532 q 274 466 274 496 q 306 412 274 435 q 499 444 390 444 q 709 382 635 444 q 783 225 783 320 q 711 60 783 124 q 465 -9 633 -9 m 874 376 q 847 376 874 376 q 794 404 820 376 q 767 473 767 433 q 795 542 767 513 q 876 570 822 570 q 956 542 930 570 q 982 473 982 514 q 955 404 982 433 q 874 376 928 376 z "},"च":{"ha":1029,"x_min":-21,"x_max":1050,"o":"m 685 0 l 685 140 q 513 106 608 106 q 285 182 371 106 q 199 371 199 257 q 220 474 199 428 l 46 474 l 46 634 l 567 634 l 567 474 l 501 474 q 413 436 442 468 q 383 363 383 405 q 415 295 383 322 q 498 268 446 268 q 600 291 550 268 q 685 354 650 314 l 685 770 l -21 770 l -21 905 l 1050 905 l 1050 770 l 885 770 l 885 0 l 685 0 z "},"छ":{"ha":1145,"x_min":-21,"x_max":1166,"o":"m 836 544 q 819 544 836 544 q 782 520 801 544 q 762 454 762 496 q 785 375 762 411 q 862 300 807 339 q 911 434 911 368 q 891 516 911 487 q 836 544 871 544 m 528 140 q 756 204 651 140 q 589 495 589 333 q 648 632 589 571 q 801 697 706 692 l 801 770 l 339 770 q 276 721 297 751 q 255 654 255 690 q 347 543 255 580 q 473 564 407 562 l 484 564 l 534 402 l 523 402 q 389 359 432 396 q 347 269 347 322 q 395 178 347 216 q 528 140 444 140 m 936 119 q 902 87 936 119 q 765 18 868 56 q 553 -20 662 -20 q 366 6 444 -20 q 242 78 288 33 q 146 291 146 169 q 206 451 146 381 q 57 675 57 530 q 87 770 57 725 l -21 770 l -21 905 l 1166 905 l 1166 770 l 1002 770 l 1002 629 q 1081 420 1081 553 q 1042 260 1081 338 q 936 119 1004 181 z "},"ज":{"ha":1189,"x_min":-21,"x_max":1210,"o":"m 845 0 l 845 468 l 614 468 q 685 284 685 387 q 614 113 685 181 q 428 45 543 45 q 207 114 312 45 q 15 316 103 183 l 112 451 q 402 222 270 222 q 474 247 447 222 q 501 314 501 272 q 450 422 501 371 q 311 493 399 474 l 311 634 l 845 634 l 845 770 l -21 770 l -21 905 l 1210 905 l 1210 770 l 1046 770 l 1046 0 l 845 0 z "},"झ":{"ha":1216,"x_min":-21,"x_max":1237,"o":"m 278 -4 q 120 40 173 2 q 68 119 68 77 q 99 190 68 161 q 176 219 129 219 q 331 147 251 219 q 476 180 428 150 q 524 244 524 209 q 501 283 524 269 q 439 298 479 298 q 273 251 369 298 l 262 251 q 98 363 148 303 q 48 496 48 422 q 106 618 48 569 q 280 666 164 666 l 434 666 l 434 770 l -21 770 l -21 905 l 1237 905 l 1237 770 l 1072 770 l 1072 0 l 871 0 l 871 224 q 787 217 828 217 q 708 221 746 217 q 638 87 701 146 q 463 8 574 29 l 585 -123 l 461 -203 l 278 -4 m 732 371 q 871 403 808 371 l 871 770 l 635 770 l 635 532 l 318 532 q 252 514 275 532 q 228 466 228 496 q 265 412 228 436 q 467 442 354 442 q 650 378 580 442 q 732 371 691 371 z "},"ञ":{"ha":1251,"x_min":-21,"x_max":1272,"o":"m 906 0 l 906 312 q 803 303 856 303 q 698 311 751 303 q 608 141 683 202 q 421 80 534 80 q 15 277 209 80 l 84 421 q 242 292 173 329 q 379 256 310 256 q 488 291 449 256 q 527 380 527 327 q 487 468 527 434 q 388 501 447 501 q 232 443 302 501 l 151 593 q 254 649 195 627 q 377 671 313 671 q 563 619 481 671 q 680 478 645 566 q 758 473 723 473 q 906 501 829 473 l 906 770 l -21 770 l -21 905 l 1272 905 l 1272 770 l 1107 770 l 1107 0 l 906 0 z "},"ट":{"ha":839,"x_min":-21,"x_max":860,"o":"m 756 68 q 629 30 687 41 q 483 19 571 19 q 315 46 395 19 q 180 120 234 74 q 97 227 126 166 q 67 355 67 288 q 153 560 67 486 q 400 634 239 634 l 487 634 l 487 770 l -21 770 l -21 905 l 860 905 l 860 770 l 688 770 l 688 484 l 458 484 q 315 441 362 484 q 268 330 268 397 q 318 224 268 263 q 467 185 369 185 q 716 242 565 185 l 756 68 z "},"ठ":{"ha":932,"x_min":-21,"x_max":953,"o":"m 250 331 q 250 297 250 331 q 308 216 250 263 q 468 170 366 170 q 630 217 570 170 q 690 346 690 265 q 613 485 690 428 l 468 485 q 304 443 358 485 q 250 331 250 400 m 782 100 q 760 78 782 100 q 664 30 738 55 q 490 5 589 5 q 307 34 390 5 q 171 113 224 63 q 89 226 118 162 q 60 360 60 289 q 149 560 60 486 q 397 634 238 634 l 574 634 l 574 770 l -21 770 l -21 905 l 953 905 l 953 770 l 775 770 l 775 553 q 843 443 817 505 q 869 317 869 381 q 848 198 869 253 q 782 100 826 144 z "},"ड":{"ha":863,"x_min":-21,"x_max":884,"o":"m 465 -9 q 73 83 273 -9 l 110 231 q 435 139 284 139 q 554 163 515 139 q 593 228 593 187 q 568 277 593 258 q 494 295 542 295 q 319 250 405 295 l 303 250 q 138 362 190 301 q 87 496 87 423 q 142 617 87 569 q 308 666 197 666 l 501 666 l 501 770 l -21 770 l -21 905 l 884 905 l 884 770 l 701 770 l 701 532 l 356 532 q 294 514 315 532 q 274 466 274 496 q 306 412 274 435 q 499 444 390 444 q 709 382 635 444 q 783 225 783 320 q 711 60 783 124 q 465 -9 633 -9 z "},"ढ":{"ha":885,"x_min":-21,"x_max":906,"o":"m 617 272 q 597 272 617 272 q 545 245 576 272 q 514 185 514 218 q 524 122 514 152 q 651 151 605 124 q 697 215 697 178 q 678 257 697 241 q 617 272 658 272 m 535 3 q 341 32 432 3 q 190 110 251 62 q 94 222 128 159 q 59 348 59 285 q 78 461 59 411 q 137 549 98 510 q 245 612 177 589 q 405 634 314 634 l 523 634 l 523 770 l -21 770 l -21 905 l 906 905 l 906 770 l 724 770 l 724 491 l 469 491 q 295 442 349 491 q 242 315 242 394 q 271 227 242 268 q 351 159 300 186 q 348 202 348 177 q 414 340 348 284 q 596 396 479 396 q 784 341 713 396 q 855 207 855 285 q 775 60 855 117 q 535 3 694 3 z "},"ण":{"ha":1215,"x_min":-21,"x_max":1236,"o":"m 292 476 q 317 394 292 423 q 387 364 342 364 q 460 399 433 364 q 487 499 487 434 l 487 770 l 292 770 l 292 476 m 870 0 l 870 770 l 688 770 l 688 516 q 619 296 688 379 q 529 232 585 255 q 399 209 473 209 q 171 294 250 209 q 91 515 91 378 l 91 770 l -21 770 l -21 905 l 1236 905 l 1236 770 l 1071 770 l 1071 0 l 870 0 z "},"त":{"ha":909,"x_min":-21,"x_max":930,"o":"m 393 634 l 565 634 l 565 770 l -21 770 l -21 905 l 930 905 l 930 770 l 765 770 l 765 0 l 565 0 l 565 466 l 440 466 q 305 424 348 466 q 263 315 263 383 q 375 32 263 210 l 208 -18 q 72 365 70 192 q 153 560 73 486 q 393 634 232 634 z "},"थ":{"ha":1017,"x_min":11,"x_max":1038,"o":"m 188 733 q 342 618 188 653 q 362 687 362 652 q 330 769 362 737 q 261 800 299 800 q 206 782 223 800 q 188 733 188 764 m 672 0 l 672 190 q 532 164 612 164 q 269 242 392 164 q 76 452 145 320 l 80 464 q 234 522 169 485 q 68 621 124 556 q 11 763 11 686 q 67 890 11 839 q 219 942 122 942 q 447 861 360 942 q 533 666 533 780 q 474 497 533 569 q 315 385 415 426 q 470 327 383 327 q 672 421 596 327 l 672 770 l 609 770 l 609 905 l 1038 905 l 1038 770 l 873 770 l 873 0 l 672 0 z "},"द":{"ha":843,"x_min":-21,"x_max":864,"o":"m 475 53 q 173 143 287 53 q 58 370 58 232 q 136 556 58 483 q 240 614 176 593 q 391 635 305 635 l 494 635 l 494 770 l -21 770 l -21 905 l 864 905 l 864 770 l 694 770 l 694 491 l 461 491 q 302 449 353 491 q 250 344 250 408 q 302 238 250 279 q 433 197 354 197 l 452 197 q 437 264 437 233 q 467 319 438 295 q 555 343 496 343 q 711 305 645 343 q 778 218 778 268 q 754 154 778 187 q 685 98 731 121 l 789 -101 l 642 -163 l 528 55 q 475 53 503 53 z "},"ध":{"ha":1036,"x_min":-27,"x_max":1057,"o":"m 298 773 q 280 818 298 801 q 226 836 261 836 q 166 809 191 836 q 140 742 140 782 q 171 671 140 702 q 177 666 175 668 q 266 704 235 675 q 298 773 298 734 m 363 605 l 369 604 q 496 621 426 621 l 527 621 l 562 462 l 543 462 q 417 431 458 462 q 376 359 376 400 q 406 295 376 318 q 489 272 435 272 q 598 297 543 272 q 692 368 652 323 l 692 770 l 599 770 l 599 905 l 1057 905 l 1057 770 l 893 770 l 893 0 l 692 0 l 692 142 q 502 98 612 98 q 275 178 360 98 q 190 372 190 258 q 220 489 190 435 q 48 583 112 519 q -27 760 -27 657 q 36 911 -27 850 q 211 973 99 973 q 389 912 323 973 q 455 765 455 852 q 431 674 455 715 q 363 605 407 633 z "},"न":{"ha":912,"x_min":-21,"x_max":933,"o":"m 567 0 l 567 418 l 313 418 l 313 282 q 295 220 313 243 q 245 198 276 198 q 155 245 202 198 q 87 351 119 282 q 56 482 56 420 q 169 584 56 584 l 567 584 l 567 770 l -21 770 l -21 905 l 933 905 l 933 770 l 768 770 l 768 0 l 567 0 z "},"ऩ":{"ha":912,"x_min":-21,"x_max":933,"o":"m 192 -127 q 168 -127 192 -127 q 118 -100 145 -127 q 91 -35 91 -72 q 118 30 91 3 q 192 57 144 57 q 265 30 239 57 q 291 -34 291 3 q 265 -99 291 -72 q 192 -127 239 -127 m 567 0 l 567 418 l 313 418 l 313 282 q 295 220 313 243 q 245 198 276 198 q 155 245 202 198 q 87 351 119 282 q 56 482 56 420 q 169 584 56 584 l 567 584 l 567 770 l -21 770 l -21 905 l 933 905 l 933 770 l 768 770 l 768 0 l 567 0 z "},"प":{"ha":883,"x_min":-21,"x_max":904,"o":"m 391 379 q 539 442 476 379 l 539 770 l 289 770 l 289 494 q 316 408 289 437 q 391 379 342 379 m 539 0 l 539 235 q 414 217 478 217 q 177 301 265 217 q 88 534 88 384 l 88 770 l -21 770 l -21 905 l 904 905 l 904 770 l 740 770 l 740 0 l 539 0 z "},"फ":{"ha":1237,"x_min":-21,"x_max":1258,"o":"m 739 0 l 538 0 l 538 249 q 423 235 485 235 q 182 319 270 235 q 93 557 93 403 l 93 770 l -21 770 l -21 905 l 1258 905 l 1258 770 l 739 770 l 739 555 q 861 572 791 572 q 1083 494 996 572 q 1169 303 1169 416 q 1083 52 1169 168 l 906 112 q 984 310 984 220 q 957 378 984 351 q 885 405 930 405 q 739 328 805 405 l 739 0 m 397 397 q 538 449 473 397 l 538 770 l 294 770 l 294 511 q 321 426 294 455 q 397 397 347 397 z "},"ब":{"ha":888,"x_min":-21,"x_max":909,"o":"m 366 279 q 430 286 401 279 l 261 480 q 233 400 233 451 q 269 314 233 348 q 366 279 305 279 m 386 524 q 365 523 371 524 l 528 336 q 543 350 538 345 l 543 496 q 386 524 462 524 m 543 0 l 543 157 q 398 125 479 125 q 253 151 317 125 q 145 219 188 176 q 78 318 103 263 q 53 435 53 374 q 131 604 53 537 q 330 670 209 670 q 543 641 451 670 l 543 770 l -21 770 l -21 905 l 909 905 l 909 770 l 744 770 l 744 0 l 543 0 z "},"भ":{"ha":1064,"x_min":-46,"x_max":1085,"o":"m 719 0 l 719 314 l 480 314 l 480 251 q 409 168 480 168 q 328 190 374 168 q 246 248 282 212 q 187 327 210 284 q 164 406 164 371 q 184 460 164 440 q 242 479 204 479 l 293 479 l 293 532 q 40 606 127 537 q -46 779 -46 675 q 10 912 -46 857 q 175 968 66 968 q 395 889 311 968 q 480 684 480 809 l 480 479 l 719 479 l 719 770 l 626 770 l 626 905 l 1085 905 l 1085 770 l 920 770 l 920 0 l 719 0 m 127 756 q 168 691 127 716 q 293 664 209 666 l 293 709 q 264 792 293 760 q 194 824 236 824 q 145 804 163 824 q 127 756 127 783 z "},"म":{"ha":957,"x_min":-21,"x_max":978,"o":"m 613 0 l 613 314 l 357 314 l 357 251 q 287 168 357 168 q 205 190 251 168 q 124 248 159 212 q 65 327 88 284 q 42 406 42 371 q 62 460 42 440 q 120 479 82 479 l 157 479 l 157 770 l -21 770 l -21 905 l 978 905 l 978 770 l 814 770 l 814 0 l 613 0 m 613 770 l 357 770 l 357 479 l 613 479 l 613 770 z "},"य":{"ha":963,"x_min":-21,"x_max":984,"o":"m 418 331 q 619 422 544 331 l 619 770 l 439 770 l 439 666 q 397 496 439 563 q 263 391 355 430 q 418 331 329 331 m 619 0 l 619 190 q 482 164 561 164 q 215 242 337 164 q 22 455 93 319 l 26 468 q 190 555 141 506 q 238 680 238 605 l 238 770 l -21 770 l -21 905 l 984 905 l 984 770 l 819 770 l 819 0 l 619 0 z "},"र":{"ha":675,"x_min":-21,"x_max":696,"o":"m 74 421 q 25 525 25 486 q 49 588 25 563 q 110 613 73 613 q 202 560 161 613 l 253 489 q 342 554 315 513 q 368 661 368 595 l 368 770 l -21 770 l -21 905 l 696 905 l 696 770 l 569 770 l 569 631 q 517 448 569 527 q 360 324 465 369 l 558 59 l 418 -34 l 74 421 z "},"ऱ":{"ha":675,"x_min":-21,"x_max":696,"o":"m 108 -72 q 85 -72 108 -72 q 34 -45 61 -72 q 8 20 8 -18 q 34 85 8 58 q 108 112 60 112 q 182 85 156 112 q 207 20 207 58 q 182 -45 207 -17 q 108 -72 156 -72 m 74 421 q 25 525 25 486 q 49 588 25 563 q 110 613 73 613 q 202 560 161 613 l 253 489 q 342 554 315 513 q 368 661 368 595 l 368 770 l -21 770 l -21 905 l 696 905 l 696 770 l 569 770 l 569 631 q 517 448 569 527 q 360 324 465 369 l 558 59 l 418 -34 l 74 421 z "},"ल":{"ha":1152,"x_min":-39,"x_max":1173,"o":"m 37 364 q 118 560 37 481 q 331 639 199 639 q 660 502 514 639 l 808 629 l 808 770 l -39 770 l -39 905 l 1173 905 l 1173 770 l 1009 770 l 1009 0 l 808 0 l 808 390 l 528 159 l 403 282 l 529 390 q 365 463 452 463 q 269 423 306 463 q 232 327 232 384 q 267 211 232 270 q 390 72 302 153 l 235 -15 q 37 364 37 163 z "},"ळ":{"ha":1205,"x_min":-21,"x_max":1226,"o":"m 336 213 q 515 390 441 213 q 537 436 527 418 q 387 477 459 477 q 275 435 315 477 q 235 333 235 393 q 262 243 235 274 q 336 213 290 213 m 664 259 q 818 211 744 211 q 932 251 892 211 q 973 361 973 291 q 944 446 973 414 q 866 477 914 477 q 774 440 818 477 q 701 334 730 403 q 664 259 685 295 m 1150 347 q 1150 277 1150 347 q 1071 127 1150 207 q 851 46 991 46 q 576 140 711 46 q 348 49 483 49 q 132 133 212 49 q 51 345 51 216 q 133 558 51 475 q 355 642 215 642 q 621 555 496 642 q 852 646 711 646 l 860 646 l 860 770 l -21 770 l -21 905 l 1226 905 l 1226 770 l 1061 770 l 1061 571 q 1150 347 1150 487 z "},"ऴ":{"ha":1205,"x_min":-21,"x_max":1226,"o":"m 156 -187 q 132 -187 156 -187 q 81 -160 108 -187 q 55 -95 55 -133 q 81 -31 55 -58 q 155 -4 107 -4 q 229 -31 203 -4 q 254 -95 254 -58 q 229 -160 254 -132 q 156 -187 203 -187 m 336 213 q 515 390 441 213 q 537 436 527 418 q 387 477 459 477 q 275 435 315 477 q 235 333 235 393 q 262 243 235 274 q 336 213 290 213 m 664 259 q 818 211 744 211 q 932 251 892 211 q 973 361 973 291 q 944 446 973 414 q 866 477 914 477 q 774 440 818 477 q 701 334 730 403 q 664 259 685 295 m 1150 347 q 1150 277 1150 347 q 1071 127 1150 207 q 851 46 991 46 q 576 140 711 46 q 348 49 483 49 q 132 133 212 49 q 51 345 51 216 q 133 558 51 475 q 355 642 215 642 q 621 555 496 642 q 852 646 711 646 l 860 646 l 860 770 l -21 770 l -21 905 l 1226 905 l 1226 770 l 1061 770 l 1061 571 q 1150 347 1150 487 z "},"व":{"ha":888,"x_min":-21,"x_max":909,"o":"m 364 284 q 543 360 463 284 l 543 490 q 390 518 463 518 q 278 485 317 518 q 239 401 239 452 q 273 317 239 350 q 364 284 308 284 m 543 0 l 543 159 q 391 127 480 127 q 147 217 242 127 q 53 436 53 307 q 131 602 53 537 q 328 668 209 668 q 543 640 448 668 l 543 770 l -21 770 l -21 905 l 909 905 l 909 770 l 744 770 l 744 0 l 543 0 z "},"श":{"ha":1169,"x_min":84,"x_max":1190,"o":"m 294 192 q 191 179 244 179 q 111 213 138 179 q 84 303 84 247 q 123 407 84 360 q 213 455 161 455 q 275 440 246 455 q 338 393 303 426 q 461 490 416 427 q 191 569 283 499 q 100 747 100 639 q 161 886 100 827 q 334 944 223 944 q 573 853 477 944 q 669 614 669 762 q 608 414 669 506 q 451 261 548 322 l 630 76 l 513 -32 l 294 192 m 503 629 q 459 745 503 699 q 356 791 414 791 q 297 772 318 791 q 277 728 277 753 q 288 687 277 704 q 324 654 299 670 q 503 616 377 620 l 503 629 m 825 0 l 825 770 l 711 770 l 711 905 l 1190 905 l 1190 770 l 1026 770 l 1026 0 l 825 0 z "},"ष":{"ha":885,"x_min":-21,"x_max":906,"o":"m 281 494 q 311 407 281 437 q 396 378 341 378 q 495 400 451 378 l 281 660 l 281 494 m 541 770 l 333 770 l 541 519 l 541 770 m 541 0 l 541 233 q 415 216 482 216 q 177 300 266 216 q 88 534 88 384 l 88 770 l -21 770 l -21 905 l 906 905 l 906 770 l 741 770 l 741 0 l 541 0 z "},"स":{"ha":1105,"x_min":-21,"x_max":1126,"o":"m 25 530 q 49 589 25 565 q 110 613 72 613 q 202 560 161 613 l 240 508 q 300 570 281 532 q 319 666 319 608 l 319 770 l -21 770 l -21 905 l 1126 905 l 1126 770 l 961 770 l 961 0 l 760 0 l 760 321 q 636 309 706 309 q 364 364 496 309 q 341 350 356 359 l 558 59 l 416 -34 l 72 422 q 25 530 25 482 m 489 497 q 617 482 548 482 q 760 506 685 482 l 760 770 l 520 770 l 520 635 q 489 497 520 559 z "},"ह":{"ha":869,"x_min":-21,"x_max":890,"o":"m 130 133 q 178 286 130 220 q 42 487 42 373 q 100 609 42 560 q 277 657 159 657 l 525 657 l 525 770 l -21 770 l -21 905 l 890 905 l 890 770 l 726 770 l 726 520 l 345 520 q 245 451 245 520 q 301 380 245 407 q 463 409 372 409 q 705 340 614 409 q 797 168 797 270 q 763 34 797 91 l 593 68 q 615 155 615 110 q 582 229 615 200 q 481 257 548 257 q 371 214 414 257 q 328 117 328 171 q 345 45 328 76 q 404 -13 362 15 q 723 -93 487 -66 l 671 -231 q 425 -186 530 -218 q 256 -105 319 -153 q 130 133 130 -9 z "},"ऺ":{"ha":0,"x_min":-346,"x_max":-145,"o":"m -346 1055 l -145 1055 l -145 802 l -346 802 l -346 1055 z "},"ऻ":{"ha":457,"x_min":-21,"x_max":478,"o":"m 112 0 l 112 770 l -21 770 l -21 905 l 112 905 l 112 1055 l 313 1055 l 313 905 l 478 905 l 478 770 l 313 770 l 313 0 l 112 0 z "},"़":{"ha":0,"x_min":-723,"x_max":-523,"o":"m -622 -300 q -645 -300 -622 -300 q -696 -272 -669 -300 q -723 -207 -723 -245 q -696 -143 -723 -170 q -622 -116 -670 -116 q -549 -143 -574 -116 q -523 -207 -523 -170 q -549 -272 -523 -244 q -622 -300 -574 -300 z "},"ऽ":{"ha":817,"x_min":62,"x_max":710,"o":"m 710 264 q 632 88 710 152 q 432 23 555 23 q 62 136 236 23 l 105 289 q 383 180 265 180 q 485 207 447 180 q 523 279 523 234 q 488 361 523 324 q 349 470 453 398 q 204 599 245 541 q 162 730 162 656 q 223 855 162 805 q 405 905 284 905 l 691 905 l 691 770 l 461 770 q 361 698 361 770 q 390 638 360 668 q 519 541 420 607 q 664 410 618 474 q 710 264 710 345 z "},"ा":{"ha":457,"x_min":-21,"x_max":478,"o":"m 112 0 l 112 770 l -21 770 l -21 905 l 478 905 l 478 770 l 313 770 l 313 0 l 112 0 z "},"ि":{"ha":457,"x_min":-21,"x_max":1134,"o":"m 112 0 l 112 770 l -21 770 l -21 905 l 112 905 l 112 946 q 177 1137 112 1057 q 264 1212 212 1180 q 397 1262 317 1244 q 578 1281 477 1281 q 1134 1169 866 1281 l 1093 1017 q 604 1110 845 1110 q 389 1060 464 1110 q 313 935 313 1010 l 313 905 l 478 905 l 478 770 l 313 770 l 313 0 l 112 0 z "},"ी":{"ha":457,"x_min":-408,"x_max":478,"o":"m 112 0 l 112 770 l -21 770 l -21 905 l 93 905 q -11 1049 47 1001 q -131 1097 -69 1097 q -195 1073 -172 1097 q -218 1010 -218 1049 q -157 880 -218 949 l -358 880 q -408 1057 -408 966 q -349 1202 -408 1139 q -272 1251 -320 1233 q -164 1270 -224 1270 q 107 1175 -13 1270 q 300 905 228 1081 l 478 905 l 478 770 l 313 770 l 313 0 l 112 0 z "},"ु":{"ha":0,"x_min":-720,"x_max":6,"o":"m -256 28 q -66 -40 -138 28 q 6 -214 6 -109 q -69 -382 6 -319 q -263 -446 -144 -446 q -499 -398 -383 -446 q -720 -262 -614 -351 l -657 -125 q -308 -294 -465 -294 q -204 -268 -239 -294 q -169 -204 -169 -242 q -194 -145 -169 -167 q -261 -124 -219 -124 q -416 -186 -331 -124 l -492 -50 q -256 28 -392 28 z "},"ू":{"ha":0,"x_min":-541,"x_max":206,"o":"m -251 -442 q -457 -374 -373 -442 q -541 -200 -541 -305 q -469 -42 -541 -107 q -270 22 -397 22 q -28 -50 -142 22 q 206 -272 85 -121 l 111 -382 q -88 -193 -3 -247 q -253 -139 -173 -139 q -337 -164 -308 -139 q -366 -224 -366 -189 q -338 -281 -366 -260 q -256 -301 -310 -301 q -131 -272 -201 -301 l -84 -409 q -251 -442 -157 -442 z "},"ृ":{"ha":0,"x_min":-522,"x_max":-79,"o":"m -252 -390 q -444 -331 -366 -390 q -522 -173 -522 -272 q -451 -28 -522 -84 q -261 28 -381 28 q -144 23 -205 28 l -144 -93 l -228 -93 q -325 -120 -291 -93 q -359 -184 -359 -147 q -331 -242 -359 -221 q -256 -263 -303 -263 q -102 -229 -188 -263 l -79 -360 q -252 -390 -159 -390 z "},"ॄ":{"ha":0,"x_min":-505,"x_max":-39,"o":"m -203 -541 q -365 -495 -310 -541 q -419 -383 -419 -449 q -390 -298 -419 -335 q -475 -233 -445 -275 q -505 -140 -505 -191 q -436 -19 -505 -67 q -251 29 -368 29 q -144 20 -185 29 l -144 -85 l -223 -85 q -305 -103 -278 -85 q -331 -149 -331 -121 q -309 -193 -331 -176 q -238 -210 -286 -210 q -116 -190 -190 -210 l -92 -303 q -235 -324 -165 -322 q -268 -374 -268 -346 q -246 -418 -268 -402 q -180 -434 -225 -434 q -60 -405 -135 -434 l -39 -512 q -203 -541 -117 -541 z "},"ॅ":{"ha":0,"x_min":-563,"x_max":68,"o":"m 68 1094 q -235 968 -52 968 q -563 1091 -418 968 l -518 1227 q -386 1142 -453 1171 q -241 1114 -319 1114 q 15 1225 -102 1114 l 68 1094 z "},"ॆ":{"ha":0,"x_min":-835,"x_max":-166,"o":"m -166 873 l -346 873 l -346 942 q -423 1022 -346 1022 q -500 1008 -443 1022 q -605 994 -556 994 q -731 1025 -676 994 q -835 1119 -786 1056 l -762 1235 q -681 1169 -715 1188 q -612 1151 -647 1151 q -500 1171 -578 1151 q -364 1190 -421 1190 q -220 1130 -273 1190 q -166 968 -166 1071 l -166 873 z "},"े":{"ha":0,"x_min":-690,"x_max":-143,"o":"m -143 873 l -375 873 l -690 1181 l -542 1290 l -143 873 z "},"ै":{"ha":0,"x_min":-893,"x_max":-146,"o":"m -574 873 l -893 1125 l -756 1244 l -334 885 l -494 1270 l -315 1321 l -146 873 l -574 873 z "},"ॉ":{"ha":457,"x_min":-98,"x_max":533,"o":"m 112 0 l 112 770 l -21 770 l -21 905 l 478 905 l 478 770 l 313 770 l 313 0 l 112 0 m 533 1094 q 230 968 413 968 q -98 1091 46 968 l -53 1227 q 79 1142 12 1171 q 224 1114 145 1114 q 480 1225 363 1114 l 533 1094 z "},"ॊ":{"ha":457,"x_min":-376,"x_max":478,"o":"m 112 0 l 112 770 l -21 770 l -21 905 l 112 905 l 112 942 q 35 1022 112 1022 q -41 1008 15 1022 q -146 994 -98 994 q -272 1025 -218 994 q -376 1119 -327 1056 l -303 1235 q -222 1169 -256 1188 q -154 1151 -188 1151 q -41 1171 -119 1151 q 95 1190 37 1190 q 239 1130 185 1190 q 292 968 292 1071 l 292 905 l 478 905 l 478 770 l 313 770 l 313 0 l 112 0 z "},"ो":{"ha":457,"x_min":-230,"x_max":478,"o":"m 112 0 l 112 770 l -21 770 l -21 905 l 52 905 l -230 1181 l -83 1290 l 286 905 l 478 905 l 478 770 l 313 770 l 313 0 l 112 0 z "},"ौ":{"ha":457,"x_min":-438,"x_max":478,"o":"m 112 0 l 112 770 l -21 770 l -21 873 l -119 873 l -438 1125 l -301 1244 l 98 905 l 113 905 l -39 1270 l 140 1321 l 297 905 l 478 905 l 478 770 l 313 770 l 313 0 l 112 0 z "},"्":{"ha":0,"x_min":-383,"x_max":85,"o":"m -383 -184 l -321 -42 l 85 -223 l 23 -366 l -383 -184 z "},"ॎ":{"ha":457,"x_min":112,"x_max":478,"o":"m 112 0 l 112 905 l 478 905 l 478 770 l 315 770 l 315 0 l 112 0 z "},"ॏ":{"ha":457,"x_min":-475,"x_max":478,"o":"m 112 0 l 112 770 l -21 770 l -21 905 l 29 905 q -13 960 10 944 q -76 977 -37 977 q -150 966 -96 977 q -247 956 -203 956 q -475 1065 -374 956 l -409 1156 q -252 1083 -328 1083 q -170 1094 -214 1083 q -117 1106 -125 1105 q -267 1204 -199 1122 l -204 1301 q -133 1247 -164 1262 q -74 1231 -103 1231 q 21 1246 -45 1231 q 136 1262 86 1262 q 265 1213 216 1262 q 313 1078 313 1163 l 313 905 l 478 905 l 478 770 l 313 770 l 313 0 l 112 0 m 85 1123 q 42 1117 68 1123 q 6 1109 16 1111 q 99 1067 64 1100 q 165 961 134 1033 l 165 1057 q 147 1107 165 1090 q 85 1123 128 1123 z "},"ॐ":{"ha":1433,"x_min":89,"x_max":1405,"o":"m 671 387 l 679 388 q 743 428 713 390 q 801 535 772 466 q 854 642 830 603 q 915 720 878 681 q 1120 802 991 802 q 1327 716 1249 802 q 1405 509 1405 630 q 1328 307 1405 388 q 1127 226 1251 226 q 881 307 1002 226 q 737 239 819 239 q 676 242 701 239 q 585 113 655 163 q 412 64 515 64 q 89 172 249 64 l 129 321 q 371 227 257 227 q 466 257 432 227 q 499 338 499 288 q 431 444 499 403 q 265 419 361 425 l 251 418 l 218 569 l 226 569 q 417 609 365 576 q 464 690 464 640 q 437 746 464 725 q 362 767 411 767 q 166 706 273 767 l 119 860 q 370 917 239 917 q 571 851 501 917 q 641 675 641 785 q 573 517 641 580 q 671 387 647 463 m 959 424 q 1087 382 1029 382 q 1187 423 1145 382 q 1229 527 1229 464 q 1203 605 1229 576 q 1137 634 1177 634 q 1060 599 1097 634 q 994 496 1023 563 q 959 424 982 470 m 1133 1013 q 829 886 1013 886 q 501 1010 646 886 l 546 1146 q 678 1061 612 1089 q 824 1033 745 1033 q 1080 1144 963 1033 l 1133 1013 m 818 1095 q 798 1095 818 1095 q 755 1119 777 1095 q 732 1174 732 1142 q 755 1230 732 1207 q 818 1253 777 1253 q 881 1230 859 1253 q 902 1175 902 1207 q 881 1119 902 1142 q 818 1095 859 1095 z "},"॑":{"ha":0,"x_min":-346,"x_max":-145,"o":"m -346 1237 l -145 1237 l -145 984 l -346 984 l -346 1237 z "},"॒":{"ha":0,"x_min":-756,"x_max":-128,"o":"m -128 -198 l -756 -198 l -756 -80 l -128 -80 l -128 -198 z "},"॓":{"ha":0,"x_min":-499,"x_max":-150,"o":"m -259 1267 l -150 987 l -325 987 l -499 1267 l -259 1267 z "},"॔":{"ha":0,"x_min":-322,"x_max":26,"o":"m -322 987 l -213 1267 l 26 1267 l -147 987 l -322 987 z "},"ॕ":{"ha":0,"x_min":-770,"x_max":-139,"o":"m -142 979 l -770 979 l -770 1097 l -142 1097 l -142 979 m -139 1241 q -442 1128 -260 1128 q -770 1238 -625 1128 l -725 1359 q -452 1259 -595 1259 q -192 1357 -309 1259 l -139 1241 z "},"ॖ":{"ha":0,"x_min":-588,"x_max":101,"o":"m 101 -169 q -231 -295 -33 -295 q -588 -171 -430 -295 l -546 -43 q -242 -150 -409 -150 q 51 -43 -74 -150 l 101 -169 z "},"ॗ":{"ha":0,"x_min":-602,"x_max":125,"o":"m 125 -374 q -225 -484 -15 -484 q -602 -376 -435 -484 l -558 -265 q -237 -358 -414 -358 q 72 -265 -60 -358 l 125 -374 m 101 -156 q -231 -270 -32 -270 q -588 -158 -430 -270 l -546 -42 q -242 -139 -410 -139 q 51 -42 -74 -139 l 101 -156 z "},"क़":{"ha":1197,"x_min":-21,"x_max":1218,"o":"m 109 -103 q 85 -103 109 -103 q 35 -75 62 -103 q 8 -10 8 -48 q 35 54 8 27 q 109 81 61 81 q 182 54 157 81 q 208 -10 208 27 q 182 -75 208 -47 q 109 -103 157 -103 m 699 0 l 499 0 l 499 176 q 346 138 430 138 q 193 178 262 138 q 86 283 124 218 q 48 422 48 348 q 112 581 48 519 q 192 629 143 612 q 303 647 241 647 q 499 611 409 650 l 499 770 l -21 770 l -21 905 l 1218 905 l 1218 770 l 699 770 l 699 580 q 808 593 749 593 q 1029 517 942 593 q 1116 327 1116 440 q 1027 78 1116 194 l 852 138 q 932 334 932 246 q 905 401 932 375 q 832 427 878 427 q 699 364 759 427 l 699 0 m 218 395 q 218 372 218 395 q 249 321 218 350 q 326 292 279 292 q 418 315 374 292 q 499 383 463 338 l 499 468 q 357 500 428 500 q 252 470 286 500 q 218 395 218 440 z "},"ख़":{"ha":1336,"x_min":-21,"x_max":1357,"o":"m 990 0 l 990 13 q 786 -7 895 -7 q 466 47 617 -7 q 212 204 315 101 q 51 426 110 306 q 28 507 28 473 q 52 567 28 541 q 111 592 76 592 q 172 576 146 592 q 228 520 197 560 l 231 514 q 288 577 271 539 q 305 673 305 615 l 305 770 l -21 770 l -21 905 l 1357 905 l 1357 770 l 1191 770 l 1191 0 l 990 0 m 127 -103 q 104 -103 127 -103 q 53 -75 80 -103 q 27 -10 27 -48 q 53 54 27 27 q 127 81 79 81 q 200 54 175 81 q 226 -10 226 27 q 200 -75 226 -47 q 127 -103 175 -103 m 829 369 q 990 435 924 369 l 990 516 q 842 545 923 545 q 762 519 791 545 q 734 456 734 494 q 760 394 734 419 q 829 369 787 369 m 781 135 q 990 167 893 135 l 990 256 q 843 229 929 229 q 654 303 731 229 q 577 482 577 377 q 637 625 577 570 q 804 680 696 680 q 990 649 913 680 l 990 770 l 506 770 l 506 662 q 470 478 506 556 q 317 331 428 389 q 348 297 333 313 q 781 135 510 135 z "},"ग़":{"ha":1002,"x_min":-21,"x_max":1023,"o":"m 269 -103 q 246 -103 269 -103 q 195 -75 222 -103 q 169 -10 169 -48 q 195 54 169 27 q 269 81 221 81 q 342 54 317 81 q 368 -10 368 27 q 342 -75 368 -47 q 269 -103 317 -103 m 657 0 l 657 770 l 409 770 l 409 303 q 330 211 409 211 q 209 249 272 211 q 104 340 145 288 q 62 431 62 392 q 81 479 62 461 q 138 496 100 496 l 208 496 l 208 770 l -21 770 l -21 905 l 1023 905 l 1023 770 l 858 770 l 858 0 l 657 0 z "},"ज़":{"ha":1189,"x_min":-22,"x_max":1210,"o":"m 79 -94 q 55 -94 79 -94 q 5 -67 32 -94 q -22 -2 -22 -39 q 5 63 -22 36 q 79 90 31 90 q 152 63 126 90 q 178 -1 178 36 q 152 -66 178 -39 q 79 -94 126 -94 m 845 0 l 845 468 l 614 468 q 685 284 685 387 q 614 113 685 181 q 428 45 543 45 q 207 114 312 45 q 15 316 103 183 l 112 451 q 402 222 270 222 q 474 247 447 222 q 501 314 501 272 q 450 422 501 371 q 311 493 399 474 l 311 634 l 845 634 l 845 770 l -21 770 l -21 905 l 1210 905 l 1210 770 l 1046 770 l 1046 0 l 845 0 z "},"ड़":{"ha":863,"x_min":-21,"x_max":884,"o":"m 424 -269 q 400 -269 424 -269 q 350 -242 376 -269 q 323 -177 323 -214 q 349 -112 323 -139 q 423 -85 376 -85 q 497 -112 471 -85 q 522 -176 522 -139 q 497 -241 522 -213 q 424 -269 471 -269 m 465 -9 q 73 83 273 -9 l 110 231 q 435 139 284 139 q 554 163 515 139 q 593 228 593 187 q 568 277 593 258 q 494 295 542 295 q 319 250 405 295 l 303 250 q 138 362 190 301 q 87 496 87 423 q 142 617 87 569 q 308 666 197 666 l 501 666 l 501 770 l -21 770 l -21 905 l 884 905 l 884 770 l 701 770 l 701 532 l 356 532 q 294 514 315 532 q 274 466 274 496 q 306 412 274 435 q 499 444 390 444 q 709 382 635 444 q 783 225 783 320 q 711 60 783 124 q 465 -9 633 -9 z "},"ढ़":{"ha":885,"x_min":-21,"x_max":906,"o":"m 480 -254 q 456 -254 480 -254 q 406 -227 433 -254 q 379 -162 379 -199 q 406 -97 379 -124 q 480 -70 432 -70 q 553 -97 527 -70 q 579 -161 579 -124 q 553 -226 579 -199 q 480 -254 527 -254 m 617 272 q 597 272 617 272 q 545 245 576 272 q 514 185 514 218 q 524 122 514 152 q 651 151 605 124 q 697 215 697 178 q 678 257 697 241 q 617 272 658 272 m 535 3 q 341 32 432 3 q 190 110 251 62 q 94 222 128 159 q 59 348 59 285 q 78 461 59 411 q 137 549 98 510 q 245 612 177 589 q 405 634 314 634 l 523 634 l 523 770 l -21 770 l -21 905 l 906 905 l 906 770 l 724 770 l 724 491 l 469 491 q 295 442 349 491 q 242 315 242 394 q 271 227 242 268 q 351 159 300 186 q 348 202 348 177 q 414 340 348 284 q 596 396 479 396 q 784 341 713 396 q 855 207 855 285 q 775 60 855 117 q 535 3 694 3 z "},"फ़":{"ha":1237,"x_min":-21,"x_max":1258,"o":"m 188 -44 q 164 -44 188 -44 q 114 -16 140 -44 q 87 49 87 11 q 113 113 87 86 q 187 140 140 140 q 261 113 235 140 q 286 49 286 86 q 261 -16 286 12 q 188 -44 235 -44 m 739 0 l 538 0 l 538 249 q 423 235 485 235 q 182 319 270 235 q 93 557 93 403 l 93 770 l -21 770 l -21 905 l 1258 905 l 1258 770 l 739 770 l 739 555 q 861 572 791 572 q 1083 494 996 572 q 1169 303 1169 416 q 1083 52 1169 168 l 906 112 q 984 310 984 220 q 957 378 984 351 q 885 405 930 405 q 739 328 805 405 l 739 0 m 397 397 q 538 449 473 397 l 538 770 l 294 770 l 294 511 q 321 426 294 455 q 397 397 347 397 z "},"य़":{"ha":963,"x_min":-21,"x_max":984,"o":"m 154 -46 q 130 -46 154 -46 q 80 -18 107 -46 q 53 47 53 9 q 80 111 53 84 q 154 138 106 138 q 227 111 202 138 q 253 47 253 84 q 227 -18 253 10 q 154 -46 202 -46 m 418 331 q 619 422 544 331 l 619 770 l 439 770 l 439 666 q 397 496 439 563 q 263 391 355 430 q 418 331 329 331 m 619 0 l 619 190 q 482 164 561 164 q 215 242 337 164 q 22 455 93 319 l 26 468 q 190 555 141 506 q 238 680 238 605 l 238 770 l -21 770 l -21 905 l 984 905 l 984 770 l 819 770 l 819 0 l 619 0 z "},"ॠ":{"ha":1248,"x_min":-21,"x_max":1270,"o":"m 1095 -53 q 916 1 986 -53 q 846 134 846 54 q 971 298 846 240 l 939 345 q 785 322 867 322 q 708 328 748 322 l 708 0 l 506 0 l 506 222 l 193 67 l 105 220 l 470 394 l 451 407 q 246 482 338 482 q 81 430 176 482 l 32 604 q 220 651 127 651 q 468 570 341 651 l 506 546 l 506 770 l -21 770 l -21 905 l 1270 905 l 1270 770 l 708 770 l 708 491 q 774 483 735 483 q 852 494 812 483 q 836 554 836 524 q 861 605 836 585 q 937 624 887 624 q 1071 595 1019 624 q 1123 517 1123 565 q 1074 421 1123 468 l 1171 283 l 1154 228 q 1029 126 1029 197 q 1048 86 1029 100 q 1109 72 1067 72 q 1214 95 1152 72 l 1241 -29 q 1095 -53 1167 -53 z "},"ॡ":{"ha":1161,"x_min":-21,"x_max":1187,"o":"m 1027 -300 q 865 -253 923 -300 q 807 -143 807 -206 q 836 -58 807 -95 q 752 6 782 -35 q 722 95 722 46 q 769 201 722 158 q 893 253 815 244 q 921 355 921 308 q 897 427 921 401 q 829 454 872 454 q 715 386 765 454 q 640 190 665 319 l 455 244 q 513 427 474 349 q 393 468 458 468 q 290 427 329 468 q 251 328 251 386 q 286 211 251 270 q 408 72 321 153 l 264 -9 q 61 378 61 176 q 137 563 61 487 q 341 640 213 640 q 609 555 488 640 q 793 626 689 621 l 793 770 l -21 770 l -21 905 l 1182 905 l 1182 770 l 994 770 l 994 571 q 1077 472 1048 532 q 1107 340 1107 411 q 1089 238 1107 294 q 1046 146 1071 183 l 998 146 q 918 127 944 146 q 892 83 892 107 q 913 42 892 58 q 986 27 935 27 q 1110 50 1038 27 l 1133 -62 q 994 -84 1049 -82 q 964 -133 964 -105 q 984 -177 964 -161 q 1053 -192 1004 -192 q 1166 -166 1102 -192 l 1187 -270 q 1027 -300 1114 -300 z "},"ॢ":{"ha":0,"x_min":-574,"x_max":57,"o":"m 57 -374 q -51 -393 9 -393 q -152 -360 -110 -393 q -193 -278 -193 -328 q -166 -210 -193 -239 q -88 -171 -139 -181 q -72 -117 -72 -142 q -86 -77 -72 -91 q -125 -62 -100 -62 q -187 -100 -160 -62 q -230 -202 -215 -138 l -343 -164 q -318 -83 -335 -121 q -381 -58 -350 -58 q -430 -76 -412 -58 q -448 -123 -448 -95 q -428 -180 -448 -151 q -358 -248 -409 -209 l -447 -308 q -574 -98 -574 -212 q -530 12 -574 -32 q -405 55 -485 55 q -259 3 -324 55 q -128 51 -206 51 q -4 5 -51 51 q 44 -110 44 -40 q 8 -237 44 -180 l -11 -237 q -67 -251 -48 -237 q -87 -281 -87 -264 q -36 -317 -87 -315 q 46 -301 0 -319 l 57 -374 z "},"ॣ":{"ha":0,"x_min":-574,"x_max":88,"o":"m 88 -492 q -13 -512 43 -512 q -103 -483 -70 -512 q -136 -414 -136 -455 q -122 -367 -136 -388 q -172 -327 -154 -352 q -189 -268 -189 -301 q -163 -208 -189 -235 q -88 -172 -138 -181 q -72 -117 -72 -143 q -86 -77 -72 -91 q -125 -62 -100 -62 q -187 -100 -160 -62 q -230 -202 -215 -138 l -343 -164 q -318 -83 -335 -121 q -381 -58 -350 -58 q -430 -76 -412 -58 q -448 -123 -448 -95 q -428 -180 -448 -151 q -358 -248 -409 -209 l -447 -308 q -574 -98 -574 -212 q -530 12 -574 -32 q -405 55 -485 55 q -259 3 -324 55 q -129 51 -206 51 q -4 6 -53 51 q 44 -110 44 -39 q 8 -237 44 -182 l -8 -237 q -63 -249 -44 -237 q -81 -277 -81 -261 q -67 -302 -81 -293 q -22 -310 -52 -310 q 45 -297 7 -310 l 58 -368 q -29 -385 17 -383 q -39 -410 -39 -395 q -26 -434 -39 -425 q 12 -442 -14 -442 q 77 -428 37 -442 l 88 -492 z "},"।":{"ha":486,"x_min":221,"x_max":411,"o":"m 411 -98 l 221 -98 l 221 971 l 411 971 l 411 -98 z "},"॥":{"ha":845,"x_min":221,"x_max":770,"o":"m 770 -98 l 581 -98 l 581 971 l 770 971 l 770 -98 m 411 -98 l 221 -98 l 221 971 l 411 971 l 411 -98 z "},"०":{"ha":846,"x_min":63,"x_max":784,"o":"m 429 630 q 392 630 429 630 q 306 576 354 630 q 258 449 258 523 q 304 329 258 375 q 422 284 350 284 q 544 335 494 284 q 593 460 593 385 q 549 582 593 534 q 429 630 505 630 m 63 468 q 88 591 63 532 q 157 695 112 650 q 269 768 202 741 q 418 795 337 795 q 684 695 584 795 q 784 444 784 595 q 744 281 784 355 q 624 161 705 207 q 434 114 543 114 q 239 162 324 114 q 109 290 154 209 q 63 468 63 370 z "},"१":{"ha":692,"x_min":56,"x_max":637,"o":"m 347 756 q 324 756 347 756 q 272 727 301 756 q 243 655 243 699 q 282 577 243 612 q 396 524 322 541 q 455 650 455 591 q 424 725 455 694 q 347 756 393 756 m 378 -73 q 402 -4 402 -38 q 356 68 402 31 l 127 245 l 127 264 l 277 407 q 110 519 164 448 q 56 675 56 589 q 131 846 56 774 q 341 917 206 917 q 467 894 410 917 q 561 834 525 871 q 617 750 597 796 q 637 644 637 703 q 611 530 637 585 q 532 420 586 476 l 378 260 l 517 146 q 603 0 602 77 q 558 -124 603 -58 l 378 -73 z "},"२":{"ha":724,"x_min":55,"x_max":668,"o":"m 228 246 q 114 271 149 246 q 80 343 80 296 q 133 467 80 406 q 249 528 187 528 q 304 512 281 528 q 352 456 328 495 q 441 528 411 486 q 472 624 472 571 q 429 714 472 677 q 317 751 386 751 q 110 702 213 751 l 55 869 q 323 914 177 914 q 578 832 487 914 q 668 619 668 750 q 605 430 668 515 q 440 296 541 345 l 639 -30 l 477 -105 l 266 248 q 228 246 241 246 z "},"३":{"ha":708,"x_min":49,"x_max":647,"o":"m 79 126 q 133 229 79 181 q 249 276 187 276 q 357 193 320 276 q 435 234 406 204 q 463 308 463 265 q 431 384 463 352 q 336 416 398 416 q 176 385 257 416 l 131 548 q 338 583 237 583 q 387 580 367 583 q 413 661 413 618 q 384 730 413 704 q 304 756 355 756 q 110 699 212 756 l 49 856 q 172 899 111 885 q 313 914 233 914 q 523 846 451 914 q 595 675 595 778 q 546 515 595 588 q 621 417 595 475 q 647 296 647 360 q 589 133 647 201 q 421 41 531 65 l 485 -88 l 333 -149 l 246 31 q 120 62 161 37 q 79 126 79 87 z "},"४":{"ha":819,"x_min":4,"x_max":833,"o":"m 327 254 q 327 236 327 254 q 352 195 327 218 q 422 172 377 172 q 495 199 466 172 q 524 271 524 226 q 502 338 524 303 q 429 426 481 374 q 347 328 368 365 q 327 254 327 291 m 711 256 q 635 95 711 164 q 433 27 560 27 q 223 99 305 27 q 141 272 141 170 q 173 401 141 336 q 291 550 206 465 l 4 805 l 132 927 l 416 669 l 694 930 l 833 808 l 553 544 q 676 391 641 459 q 711 256 711 324 z "},"५":{"ha":855,"x_min":73,"x_max":886,"o":"m 575 184 q 425 159 503 159 q 282 184 347 159 q 171 252 216 209 q 99 355 125 296 q 73 481 73 414 q 136 714 73 601 q 322 919 199 827 l 501 824 q 266 469 266 648 q 306 359 266 400 q 407 318 345 318 q 492 335 451 318 q 462 430 462 391 q 493 495 462 469 q 588 522 524 522 q 735 487 679 522 q 791 402 791 451 q 727 275 791 338 l 886 -48 l 723 -117 l 575 184 z "},"६":{"ha":765,"x_min":62,"x_max":793,"o":"m 493 29 q 234 110 330 29 q 138 315 138 190 q 183 449 138 389 q 62 672 62 539 q 121 812 62 753 q 319 902 186 878 q 480 916 390 916 l 522 753 q 310 715 371 753 q 256 632 256 680 q 303 548 256 583 q 552 603 404 597 l 605 437 q 367 368 437 437 q 328 285 328 331 q 365 210 328 239 q 464 180 402 180 q 487 182 471 180 q 477 238 477 210 q 503 287 477 267 q 586 308 530 308 q 725 275 668 308 q 782 193 782 242 q 716 86 782 133 l 793 -77 l 644 -138 l 563 34 q 493 29 531 29 z "},"७":{"ha":904,"x_min":70,"x_max":852,"o":"m 506 496 q 661 350 506 395 q 675 443 675 393 q 646 533 675 494 q 580 572 617 572 q 525 552 544 572 q 506 496 506 531 m 484 37 q 322 70 397 37 q 191 162 247 102 q 102 316 134 223 q 70 513 70 409 q 89 719 70 618 q 140 900 108 819 l 321 848 q 246 469 246 664 q 308 270 246 342 q 468 197 370 197 q 582 236 532 197 q 392 355 455 282 q 329 522 329 428 q 387 677 329 617 q 550 737 445 737 q 765 645 677 737 q 852 410 852 554 q 752 143 852 249 q 484 37 652 37 z "},"८":{"ha":764,"x_min":61,"x_max":773,"o":"m 338 463 q 281 383 296 416 q 265 310 265 349 q 301 239 265 270 q 392 209 336 209 q 513 238 448 209 q 668 338 577 268 l 773 164 q 597 65 680 94 q 415 36 514 36 q 159 122 258 36 q 61 338 61 209 q 86 463 61 404 q 169 588 110 523 l 459 914 l 622 784 l 338 463 z "},"९":{"ha":722,"x_min":48,"x_max":694,"o":"m 349 754 q 324 754 349 754 q 268 720 298 754 q 237 643 237 687 q 254 565 237 600 q 311 492 272 531 q 424 550 386 512 q 463 638 463 589 q 431 720 463 687 q 349 754 399 754 m 456 -51 q 487 36 487 -5 q 440 124 487 77 l 203 360 q 85 508 121 440 q 48 662 48 576 q 121 836 48 760 q 212 895 157 873 q 337 916 268 916 q 466 893 406 916 q 563 830 525 870 q 623 739 602 791 q 644 631 644 688 q 588 470 644 541 q 437 369 532 399 l 609 201 q 694 40 694 118 q 653 -95 694 -26 l 456 -51 z "},"॰":{"ha":676,"x_min":83,"x_max":598,"o":"m 340 419 q 363 419 340 419 q 416 448 385 419 q 446 527 446 477 q 415 607 446 577 q 340 637 384 637 q 265 607 296 637 q 234 527 234 578 q 264 448 234 477 q 340 419 295 419 m 340 767 q 397 767 340 767 q 526 698 454 767 q 598 528 598 628 q 527 358 598 428 q 342 289 456 289 q 156 359 228 289 q 83 529 83 428 q 154 699 83 630 q 340 767 226 767 z "},"ॱ":{"ha":563,"x_min":183,"x_max":382,"o":"m 283 749 q 260 749 283 749 q 209 777 236 749 q 183 842 183 804 q 209 906 183 879 q 283 933 235 933 q 356 906 331 933 q 382 842 382 879 q 356 777 382 805 q 283 749 331 749 z "},"ॲ":{"ha":1173,"x_min":52,"x_max":1239,"o":"m 829 0 l 829 323 q 730 311 773 311 q 647 315 687 311 l 647 303 q 572 133 647 202 q 374 64 498 64 q 52 172 211 64 l 92 321 q 334 227 220 227 q 428 257 394 227 q 462 338 462 288 q 394 444 462 403 q 228 419 324 425 l 214 418 l 181 569 l 189 569 q 379 609 328 576 q 427 690 427 640 q 400 746 427 725 q 324 767 374 767 q 128 706 236 767 l 81 860 q 331 917 200 917 q 533 851 463 917 q 604 675 604 785 q 535 517 604 580 q 592 463 567 494 q 664 459 627 459 q 829 500 758 459 l 829 770 l 699 770 l 699 905 l 1194 905 l 1194 770 l 1029 770 l 1029 0 l 829 0 m 1239 1094 q 936 968 1119 968 q 608 1091 753 968 l 653 1227 q 785 1142 718 1171 q 930 1114 852 1114 q 1187 1225 1069 1114 l 1239 1094 z "},"ॳ":{"ha":1173,"x_min":52,"x_max":1194,"o":"m 829 0 l 829 323 q 730 311 773 311 q 647 315 687 311 l 647 303 q 572 133 647 202 q 374 64 498 64 q 52 172 211 64 l 92 321 q 334 227 220 227 q 428 257 394 227 q 462 338 462 288 q 394 444 462 403 q 228 419 324 425 l 214 418 l 181 569 l 189 569 q 379 609 328 576 q 427 690 427 640 q 400 746 427 725 q 324 767 374 767 q 128 706 236 767 l 81 860 q 331 917 200 917 q 533 851 463 917 q 604 675 604 785 q 535 517 604 580 q 592 463 567 494 q 664 459 627 459 q 829 500 758 459 l 829 770 l 699 770 l 699 905 l 826 905 l 826 1055 l 1027 1055 l 1027 905 l 1194 905 l 1194 770 l 1029 770 l 1029 0 l 829 0 z "},"ॴ":{"ha":1619,"x_min":52,"x_max":1640,"o":"m 829 0 l 829 323 q 730 311 773 311 q 647 315 687 311 l 647 303 q 572 133 647 202 q 374 64 498 64 q 52 172 211 64 l 92 321 q 334 227 220 227 q 428 257 394 227 q 462 338 462 288 q 394 444 462 403 q 228 419 324 425 l 214 418 l 181 569 l 189 569 q 379 609 328 576 q 427 690 427 640 q 400 746 427 725 q 324 767 374 767 q 128 706 236 767 l 81 860 q 331 917 200 917 q 533 851 463 917 q 604 675 604 785 q 535 517 604 580 q 592 463 567 494 q 664 459 627 459 q 829 500 758 459 l 829 770 l 699 770 l 699 905 l 1273 905 l 1273 1055 l 1474 1055 l 1474 905 l 1640 905 l 1640 770 l 1476 770 l 1476 0 l 1275 0 l 1275 770 l 1029 770 l 1029 0 l 829 0 z "},"ॵ":{"ha":1619,"x_min":52,"x_max":1640,"o":"m 829 0 l 829 323 q 730 311 773 311 q 647 315 687 311 l 647 303 q 572 133 647 202 q 374 64 498 64 q 52 172 211 64 l 92 321 q 334 227 220 227 q 428 257 394 227 q 462 338 462 288 q 394 444 462 403 q 228 419 324 425 l 214 418 l 181 569 l 189 569 q 379 609 328 576 q 427 690 427 640 q 400 746 427 725 q 324 767 374 767 q 128 706 236 767 l 81 860 q 331 917 200 917 q 533 851 463 917 q 604 675 604 785 q 535 517 604 580 q 592 463 567 494 q 664 459 627 459 q 829 500 758 459 l 829 770 l 699 770 l 699 905 l 1190 905 q 1148 960 1171 943 q 1085 977 1124 977 q 1011 966 1064 977 q 914 956 958 956 q 685 1065 788 956 l 751 1156 q 909 1083 833 1083 q 991 1094 947 1083 q 1044 1106 1036 1105 q 894 1204 961 1122 l 956 1301 q 1027 1247 996 1262 q 1087 1231 1057 1231 q 1181 1246 1116 1231 q 1296 1262 1247 1262 q 1425 1212 1376 1262 q 1474 1078 1474 1163 l 1474 905 l 1640 905 l 1640 770 l 1476 770 l 1476 0 l 1275 0 l 1275 770 l 1029 770 l 1029 0 l 829 0 m 1245 1123 q 1202 1117 1228 1123 q 1168 1109 1177 1111 q 1259 1067 1225 1100 q 1326 961 1294 1033 l 1326 1057 q 1307 1107 1326 1090 q 1245 1123 1288 1123 z "},"ॶ":{"ha":1173,"x_min":52,"x_max":1194,"o":"m 921 -169 q 589 -295 788 -295 q 232 -171 390 -295 l 274 -43 q 578 -150 411 -150 q 871 -43 746 -150 l 921 -169 m 829 0 l 829 323 q 730 311 773 311 q 647 315 687 311 l 647 303 q 572 133 647 202 q 374 64 498 64 q 52 172 211 64 l 92 321 q 334 227 220 227 q 428 257 394 227 q 462 338 462 288 q 394 444 462 403 q 228 419 324 425 l 214 418 l 181 569 l 189 569 q 379 609 328 576 q 427 690 427 640 q 400 746 427 725 q 324 767 374 767 q 128 706 236 767 l 81 860 q 331 917 200 917 q 533 851 463 917 q 604 675 604 785 q 535 517 604 580 q 592 463 567 494 q 664 459 627 459 q 829 500 758 459 l 829 770 l 699 770 l 699 905 l 1194 905 l 1194 770 l 1029 770 l 1029 0 l 829 0 z "},"ॷ":{"ha":1173,"x_min":52,"x_max":1194,"o":"m 944 -374 q 594 -484 804 -484 q 217 -376 385 -484 l 261 -265 q 582 -358 406 -358 q 891 -265 759 -358 l 944 -374 m 921 -156 q 588 -270 787 -270 q 231 -158 389 -270 l 273 -42 q 577 -139 409 -139 q 870 -42 745 -139 l 921 -156 m 829 0 l 829 323 q 730 311 773 311 q 647 315 687 311 l 647 303 q 572 133 647 202 q 374 64 498 64 q 52 172 211 64 l 92 321 q 334 227 220 227 q 428 257 394 227 q 462 338 462 288 q 394 444 462 403 q 228 419 324 425 l 214 418 l 181 569 l 189 569 q 379 609 328 576 q 427 690 427 640 q 400 746 427 725 q 324 767 374 767 q 128 706 236 767 l 81 860 q 331 917 200 917 q 533 851 463 917 q 604 675 604 785 q 535 517 604 580 q 592 463 567 494 q 664 459 627 459 q 829 500 758 459 l 829 770 l 699 770 l 699 905 l 1194 905 l 1194 770 l 1029 770 l 1029 0 l 829 0 z "},"ॸ":{"ha":864,"x_min":-21,"x_max":885,"o":"m 614 308 q 589 370 614 346 q 523 394 565 394 q 358 329 442 394 l 358 259 q 340 198 358 220 q 285 177 322 177 q 196 203 249 177 q 97 275 143 229 q 51 335 68 303 q 34 394 34 367 q 52 439 34 421 q 111 470 70 458 l 157 484 l 157 770 l -21 770 l -21 905 l 885 905 l 885 770 l 358 770 l 358 541 q 498 558 424 558 q 711 485 630 558 q 793 298 793 413 q 765 163 793 230 q 697 47 738 95 l 528 109 q 614 308 614 228 z "},"ॹ":{"ha":1189,"x_min":-21,"x_max":1210,"o":"m 300 -219 q 288 -207 300 -219 q 277 -161 277 -195 q 300 -105 277 -128 q 365 -81 323 -81 q 430 -105 407 -81 q 453 -161 453 -128 q 430 -219 453 -195 q 365 -243 407 -243 q 300 -219 324 -243 m 516 -137 q 505 -125 516 -137 q 493 -80 493 -113 q 516 -23 493 -47 q 581 1 539 1 q 646 -23 624 1 q 669 -80 669 -47 q 646 -137 669 -113 q 582 -161 624 -161 q 516 -137 540 -161 m 94 -121 q 82 -109 94 -121 q 70 -64 70 -97 q 93 -7 70 -31 q 159 17 117 17 q 224 -7 201 17 q 246 -64 246 -31 q 224 -121 246 -97 q 159 -145 201 -145 q 94 -121 117 -145 m 845 0 l 845 468 l 614 468 q 685 284 685 387 q 614 113 685 181 q 428 45 543 45 q 207 114 312 45 q 15 316 103 183 l 112 451 q 402 222 270 222 q 474 247 447 222 q 501 314 501 272 q 450 422 501 371 q 311 493 399 474 l 311 634 l 845 634 l 845 770 l -21 770 l -21 905 l 1210 905 l 1210 770 l 1046 770 l 1046 0 l 845 0 z "},"ॺ":{"ha":963,"x_min":-21,"x_max":984,"o":"m 262 393 q 423 327 334 327 q 573 369 513 327 l 421 582 q 368 469 407 516 q 262 393 329 423 m 619 770 l 430 770 l 619 501 l 619 770 m 619 0 l 619 186 q 480 157 564 157 q 212 235 336 157 q 17 450 88 313 l 26 468 q 190 555 141 506 q 238 680 238 605 l 238 770 l -21 770 l -21 905 l 984 905 l 984 770 l 819 770 l 819 0 l 619 0 z "},"ॻ":{"ha":1002,"x_min":-21,"x_max":1023,"o":"m 657 0 l 657 770 l 409 770 l 409 303 q 330 211 409 211 q 209 249 272 211 q 104 340 145 288 q 62 431 62 392 q 81 479 62 461 q 138 496 100 496 l 208 496 l 208 770 l -21 770 l -21 905 l 1023 905 l 1023 770 l 858 770 l 858 0 l 856 0 l 856 -121 l 162 -121 l 162 0 l 657 0 z "},"ॼ":{"ha":1189,"x_min":-21,"x_max":1210,"o":"m 845 0 l 845 468 l 614 468 q 685 284 685 387 q 614 113 685 181 q 428 45 543 45 q 207 114 312 45 q 15 316 103 183 l 112 451 q 402 222 270 222 q 474 247 447 222 q 501 314 501 272 q 450 422 501 371 q 311 493 399 474 l 311 634 l 845 634 l 845 770 l -21 770 l -21 905 l 1210 905 l 1210 770 l 1046 770 l 1046 -121 l 86 -121 l 86 0 l 845 0 z "},"ॽ":{"ha":773,"x_min":124,"x_max":677,"o":"m 228 1 l 228 484 l 237 484 q 353 505 302 488 q 435 545 404 521 q 496 654 496 594 q 463 730 496 701 q 371 759 430 759 q 171 702 288 759 l 124 856 q 381 911 246 911 q 597 834 517 911 q 677 635 677 757 q 603 456 677 532 q 430 360 529 381 l 430 1 l 228 1 z "},"ॾ":{"ha":863,"x_min":-21,"x_max":884,"o":"m 765 -60 l 765 -182 l 98 -182 l 98 -60 l 765 -60 m 465 -9 q 73 83 273 -9 l 110 231 q 435 139 284 139 q 554 163 515 139 q 593 228 593 187 q 568 277 593 258 q 494 295 542 295 q 319 250 405 295 l 303 250 q 138 362 190 301 q 87 496 87 423 q 142 617 87 569 q 308 666 197 666 l 501 666 l 501 770 l -21 770 l -21 905 l 884 905 l 884 770 l 701 770 l 701 532 l 356 532 q 294 514 315 532 q 274 466 274 496 q 306 412 274 435 q 499 444 390 444 q 709 382 635 444 q 783 225 783 320 q 711 60 783 124 q 465 -9 633 -9 z "},"ॿ":{"ha":887,"x_min":-21,"x_max":909,"o":"m 366 279 q 430 286 401 279 l 261 480 q 233 400 233 451 q 269 314 233 348 q 366 279 305 279 m 386 524 q 365 523 371 524 l 528 336 q 543 350 538 345 l 543 496 q 386 524 462 524 m 543 0 l 543 157 q 398 125 479 125 q 253 151 317 125 q 145 219 188 176 q 78 318 103 263 q 53 435 53 374 q 131 604 53 537 q 330 670 209 670 q 543 641 451 670 l 543 770 l -21 770 l -21 905 l 909 905 l 909 770 l 744 770 l 744 -121 l 126 -121 l 126 0 l 543 0 z "},"​":{"ha":0,"x_min":0,"x_max":0,"o":""},"‌":{"ha":0,"x_min":-14,"x_max":14,"o":"m 14 -250 l -14 -250 l -14 1145 l 14 1145 l 14 -250 z "},"‍":{"ha":0,"x_min":-187,"x_max":187,"o":"m 14 -249 l -14 -249 l -14 918 l -166 770 l -187 791 l -20 952 l -185 1113 l -165 1133 l 0 973 l 165 1133 l 187 1112 l 21 951 l 187 791 l 165 771 l 14 918 l 14 -249 z "},"–":{"ha":767,"x_min":81,"x_max":686,"o":"m 686 333 l 81 333 l 81 489 l 686 489 l 686 333 z "},"—":{"ha":1350,"x_min":81,"x_max":1270,"o":"m 1270 331 l 81 331 l 81 489 l 1270 489 l 1270 331 z "},"―":{"ha":1294,"x_min":52,"x_max":1242,"o":"m 1242 275 l 52 275 l 52 421 l 1242 421 l 1242 275 z "},"‘":{"ha":496,"x_min":112,"x_max":362,"o":"m 298 607 l 121 607 l 112 621 q 158 765 125 675 q 224 924 192 855 l 362 924 q 298 607 319 746 z "},"’":{"ha":475,"x_min":112,"x_max":362,"o":"m 176 924 l 353 924 l 362 910 q 251 607 331 786 l 112 607 q 176 924 157 793 z "},"“":{"ha":791,"x_min":112,"x_max":657,"o":"m 416 607 l 408 621 q 453 763 421 675 q 519 924 484 851 l 657 924 q 593 607 614 746 l 416 607 m 121 607 l 112 621 q 158 765 125 675 q 224 924 192 855 l 362 924 q 298 607 319 746 l 121 607 z "},"”":{"ha":770,"x_min":112,"x_max":657,"o":"m 353 924 l 362 910 q 251 607 331 786 l 112 607 q 176 924 157 793 l 353 924 m 648 924 l 657 910 q 546 607 626 786 l 408 607 q 471 924 451 792 l 648 924 z "},"•":{"ha":487,"x_min":62,"x_max":425,"o":"m 425 473 q 425 425 425 473 q 377 324 425 376 q 243 272 329 272 q 109 324 156 272 q 62 473 62 376 q 108 621 62 570 q 243 673 155 673 q 377 621 330 673 q 425 473 425 569 z "},"…":{"ha":1107,"x_min":74,"x_max":1033,"o":"m 295 91 q 295 66 295 91 q 266 12 295 41 q 184 -17 237 -17 q 103 11 132 -17 q 74 91 74 39 q 102 171 74 143 q 184 198 131 198 q 266 170 237 198 q 295 91 295 142 m 664 91 q 664 65 664 91 q 635 12 664 40 q 553 -17 606 -17 q 472 11 501 -17 q 442 91 442 39 q 471 171 442 143 q 553 198 499 198 q 635 170 607 198 q 664 91 664 142 m 1033 91 q 1033 65 1033 91 q 1004 12 1033 40 q 922 -17 975 -17 q 840 11 869 -17 q 812 91 812 39 q 840 171 812 143 q 922 198 869 198 q 1004 170 975 198 q 1033 91 1033 142 z "},"₹":{"ha":864,"x_min":95,"x_max":744,"o":"m 95 529 l 95 659 l 407 659 q 349 739 390 708 q 251 774 307 770 l 95 774 l 95 905 l 744 905 l 744 774 l 541 774 q 602 659 586 724 l 744 659 l 744 529 l 605 529 q 528 390 588 448 q 376 298 469 331 l 621 11 l 622 0 l 412 0 l 128 336 l 131 397 q 307 437 239 402 q 400 529 374 472 l 95 529 z "},"−":{"ha":739,"x_min":55,"x_max":683,"o":"m 683 387 l 55 387 l 55 525 l 683 525 l 683 387 z "},"◌":{"ha":927,"x_min":121,"x_max":808,"o":"m 413 93 q 413 117 413 93 q 467 142 413 142 q 521 93 521 142 q 467 44 521 44 q 413 93 413 44 m 205 197 q 259 245 205 245 q 314 197 314 245 q 259 148 314 148 q 205 197 205 148 m 621 197 q 675 245 621 245 q 730 197 730 245 q 675 148 730 148 q 621 197 621 148 m 754 348 q 727 348 754 348 q 700 396 700 348 q 754 444 700 444 q 808 396 808 444 q 754 348 808 348 m 121 396 q 121 420 121 396 q 176 444 121 444 q 230 396 230 444 q 216 360 230 373 q 176 348 202 348 q 121 396 121 348 m 219 632 q 226 638 219 632 q 259 645 232 645 q 300 632 286 645 q 314 595 314 619 q 259 546 314 546 q 205 595 205 546 q 219 632 205 619 m 635 632 q 642 638 635 632 q 675 645 649 645 q 716 632 702 645 q 730 595 730 619 q 675 546 730 546 q 621 595 621 546 q 635 632 621 619 m 466 747 q 507 734 493 747 q 521 697 521 720 q 467 650 521 650 q 413 698 413 650 q 466 747 413 747 z "}}}
